<svg width="25" height="25" viewBox="0 0 25 25" fill="none" xmlns="http://www.w3.org/2000/svg">
<path d="M12.9932 0.996124C6.366 0.996124 0.993164 6.36896 0.993164 12.9961C0.993164 19.6233 6.366 24.9961 12.9932 24.9961C19.6203 24.9961 24.9932 19.6233 24.9932 12.9961C24.9932 6.36896 19.6203 0.996124 12.9932 0.996124ZM16.4401 17.727C15.9166 18.364 15.2351 18.7937 14.4401 19.0109C14.0944 19.1048 13.9364 19.2875 13.9561 19.648C13.9709 20.0035 13.9561 20.3541 13.9512 20.7097C13.9512 21.0258 13.7882 21.1937 13.4771 21.2035C13.2746 21.2085 13.0722 21.2134 12.8697 21.2134C12.6919 21.2134 12.5142 21.2134 12.3364 21.2085C12.0006 21.2035 11.8425 21.0109 11.8425 20.685C11.8376 20.4282 11.8376 20.1665 11.8376 19.9097C11.8327 19.3369 11.8129 19.3171 11.2648 19.2282C10.5635 19.1146 9.87218 18.9566 9.2302 18.6455C8.7265 18.3986 8.67218 18.2751 8.81539 17.7418C8.92403 17.3467 9.03267 16.9517 9.15613 16.5616C9.24502 16.2751 9.32897 16.1467 9.48205 16.1467C9.57094 16.1467 9.68452 16.1912 9.83761 16.2702C10.5487 16.6406 11.3043 16.848 12.0993 16.9467C12.2327 16.9616 12.366 16.9714 12.4993 16.9714C12.8697 16.9714 13.2302 16.9023 13.5808 16.7492C14.4648 16.364 14.603 15.3418 13.8574 14.7295C13.6055 14.5221 13.3142 14.369 13.0129 14.2356C12.2376 13.8949 11.4327 13.6381 10.7018 13.1986C9.51662 12.4875 8.766 11.5146 8.85489 10.0727C8.95366 8.44304 9.87711 7.42575 11.3734 6.88254C11.9907 6.66032 11.9956 6.66526 11.9956 6.02328C11.9956 5.806 11.9907 5.58872 12.0006 5.36649C12.0154 4.88254 12.0944 4.79859 12.5784 4.78378C12.6327 4.78378 12.6919 4.78378 12.7463 4.78378C12.8401 4.78378 12.9339 4.78378 13.0277 4.78378C13.0672 4.78378 13.1067 4.78378 13.1413 4.78378C14.0598 4.78378 14.0598 4.82328 14.0648 5.81588C14.0697 6.54674 14.0697 6.54674 14.7956 6.66032C15.3537 6.74921 15.8821 6.91217 16.3956 7.13933C16.6771 7.26279 16.7858 7.46032 16.6969 7.76156C16.5685 8.206 16.445 8.65538 16.3067 9.09489C16.2179 9.36156 16.1339 9.48501 15.9759 9.48501C15.887 9.48501 15.7783 9.45045 15.6401 9.38131C14.929 9.03563 14.1833 8.86773 13.403 8.86773C13.3043 8.86773 13.2006 8.87267 13.1018 8.87761C12.8697 8.89242 12.6425 8.92205 12.4253 9.01588C11.6549 9.35168 11.5314 10.2011 12.1882 10.7245C12.5191 10.9912 12.8993 11.1788 13.2895 11.3418C13.9709 11.6233 14.6524 11.8949 15.2993 12.2504C17.3339 13.3862 17.887 15.969 16.4401 17.727Z" fill="url(#paint0_linear)"/>
<defs>
<linearGradient id="paint0_linear" x1="12.9932" y1="0.996124" x2="12.9932" y2="24.9961" gradientUnits="userSpaceOnUse">
<stop stop-color="#72E8FC"/>
<stop offset="1" stop-color="#427DF7"/>
</linearGradient>
</defs>
</svg>
