<svg width="25" height="25" viewBox="0 0 25 25" fill="none" xmlns="http://www.w3.org/2000/svg">
<path d="M12.9932 0.996124C6.37629 0.996124 0.993164 6.37925 0.993164 12.9961C0.993164 19.613 6.37629 24.9961 12.9932 24.9961C19.61 24.9961 24.9932 19.613 24.9932 12.9961C24.9932 6.37925 19.61 0.996124 12.9932 0.996124ZM18.7002 19.2028C18.5052 19.3978 18.2493 19.4958 17.9933 19.4958C17.7374 19.4958 17.481 19.3978 17.2864 19.2028L12.2863 14.2032C12.0983 14.0161 11.9933 13.7621 11.9933 13.4963V6.99612C11.9933 6.443 12.441 5.99628 12.9932 5.99628C13.5454 5.99628 13.993 6.44347 13.993 6.99612V13.0824L18.7002 17.7891C19.0911 18.18 19.0911 18.8119 18.7002 19.2028Z" fill="url(#paint0_linear)"/>
<defs>
<linearGradient id="paint0_linear" x1="12.9932" y1="0.996124" x2="12.9932" y2="24.9961" gradientUnits="userSpaceOnUse">
<stop stop-color="#72E8FC"/>
<stop offset="1" stop-color="#427DF7"/>
</linearGradient>
</defs>
</svg>
