<svg width="24" height="26" viewBox="0 0 24 26" fill="none" xmlns="http://www.w3.org/2000/svg">
<path d="M23.9254 17.9706L17.7486 25.871C17.6868 25.9499 17.5904 25.9967 17.4887 25.9967C17.3876 25.9967 17.2912 25.9499 17.2288 25.871L11.0526 17.9706C11.0068 17.9127 10.9848 17.8431 10.9848 17.7741C10.9848 17.7068 11.0062 17.6378 11.0508 17.5799C11.1401 17.4641 11.2965 17.4215 11.4333 17.4741L15.523 19.0631V2.22484C15.523 2.04647 15.6705 1.90318 15.8513 1.90318H19.1291C19.3099 1.90318 19.4568 2.04705 19.4568 2.22484V19.0631L23.5465 17.4741C23.6833 17.4215 23.8397 17.4641 23.9283 17.5799C24.0164 17.6963 24.0158 17.8554 23.9254 17.9706ZM13.9373 9.41231C13.9813 9.35441 14.0027 9.2854 14.0027 9.21815C14.0027 9.14914 13.9801 9.07954 13.9349 9.02165L7.75816 1.12186C7.6963 1.04233 7.59935 0.996124 7.49884 0.996124C7.39713 0.996124 7.30078 1.04291 7.23833 1.12186L1.06217 9.02165C0.971764 9.13686 0.971764 9.29593 1.06039 9.41231C1.14901 9.52752 1.30484 9.5708 1.44223 9.51758L5.53251 7.9292V24.7674C5.53251 24.9458 5.67882 25.0896 5.86023 25.0896H9.13804C9.31885 25.0896 9.46576 24.9458 9.46576 24.7674V7.9292L13.5554 9.51758C13.6916 9.5708 13.8481 9.52752 13.9373 9.41231Z" fill="url(#paint0_linear)"/>
<defs>
<linearGradient id="paint0_linear" x1="12.494" y1="0.996124" x2="12.494" y2="25.9967" gradientUnits="userSpaceOnUse">
<stop stop-color="#72E8FC"/>
<stop offset="1" stop-color="#427DF7"/>
</linearGradient>
</defs>
</svg>
