<svg width="29" height="29" viewBox="0 0 29 29" fill="none" xmlns="http://www.w3.org/2000/svg">
<mask id="mask0" mask-type="alpha" maskUnits="userSpaceOnUse" x="0" y="0" width="29" height="29">
<circle cx="14.5" cy="14.5" r="14.5" fill="#C4C4C4"/>
</mask>
<g mask="url(#mask0)">
<circle cx="14.5" cy="14.5" r="14.5" fill="#C4C4C4"/>
<g clip-path="url(#clip0)">
<path d="M46.9193 31H-1.14153C-1.61597 31 -2 30.6232 -2 30.1577V-0.157669C-2 -0.623193 -1.61597 -1 -1.14153 -1H46.9203C47.3947 -1 47.7788 -0.623193 47.7788 -0.157669V30.1577C47.7778 30.6232 47.3938 31 46.9193 31Z" fill="#F5F5F5"/>
<path d="M47.7778 1.46213H-2V-0.157669C-2 -0.623193 -1.61597 -1 -1.14153 -1H46.9203C47.3947 -1 47.7788 -0.623193 47.7788 -0.157669L47.7778 1.46213Z" fill="#FF4B55"/>
<path d="M47.7778 8.8466H-2V11.3078H47.7778V8.8466Z" fill="#FF4B55"/>
<path d="M47.7778 3.92331H-2V6.38448H47.7778V3.92331Z" fill="#FF4B55"/>
<path d="M47.7778 16.2311H-1.14153C-1.61597 16.2311 -2 15.8543 -2 15.3887V13.7689H47.7778V16.2311Z" fill="#FF4B55"/>
<path d="M47.7778 23.6165H-2V26.0777H47.7778V23.6165Z" fill="#FF4B55"/>
<path d="M46.9193 31H-1.14153C-1.61597 31 -2 30.6232 -2 30.1577V28.5379H47.7778V30.1577C47.7778 30.6232 47.3938 31 46.9193 31Z" fill="#FF4B55"/>
<path d="M47.7778 18.6922H-2V21.1534H47.7778V18.6922Z" fill="#FF4B55"/>
<path d="M20.3144 -1H-1.14153C-1.61597 -1 -2 -0.623193 -2 -0.157669V15.3887C-2 15.8543 -1.61597 16.2311 -1.14153 16.2311H20.3144C20.7889 16.2311 21.1729 15.8543 21.1729 15.3887V-0.157669C21.1729 -0.623193 20.7879 -1 20.3144 -1Z" fill="#41479B"/>
<path d="M0.410215 0.932686L0.599798 1.4917L1.20063 1.49647C1.27841 1.49742 1.31049 1.59472 1.24827 1.63956L0.765075 1.98966L0.945909 2.55153C0.969242 2.62403 0.884659 2.68413 0.821464 2.64024L0.333409 2.29778L-0.154647 2.64024C-0.217841 2.68413 -0.302424 2.62403 -0.279091 2.55153L-0.0982578 1.98966L-0.581452 1.63956C-0.643674 1.59377 -0.611591 1.49647 -0.533813 1.49647L0.0670201 1.4917L0.256603 0.932686C0.280909 0.860186 0.384937 0.860186 0.410215 0.932686Z" fill="#F5F5F5"/>
<path d="M0.410215 3.85748L0.599798 4.41649L1.20063 4.42126C1.27841 4.42221 1.31049 4.51951 1.24827 4.56435L0.765075 4.91444L0.945909 5.47632C0.969242 5.54882 0.884659 5.60892 0.821464 5.56503L0.333409 5.22161L-0.154647 5.56408C-0.217841 5.60796 -0.302424 5.54786 -0.279091 5.47536L-0.0982578 4.91444L-0.581452 4.56435C-0.643674 4.51856 -0.611591 4.42221 -0.533813 4.42126L0.0670201 4.41649L0.256603 3.85748C0.280909 3.78498 0.384937 3.78498 0.410215 3.85748Z" fill="#F5F5F5"/>
<path d="M0.410215 6.78132L0.599798 7.34033L1.20063 7.3451C1.27841 7.34605 1.31049 7.44336 1.24827 7.48819L0.765075 7.83829L0.945909 8.40016C0.969242 8.47266 0.884659 8.53276 0.821464 8.48888L0.333409 8.14641L-0.154647 8.48888C-0.217841 8.53276 -0.302424 8.47266 -0.279091 8.40016L-0.0982578 7.83829L-0.581452 7.48819C-0.643674 7.4424 -0.611591 7.34605 -0.533813 7.3451L0.0670201 7.34033L0.256603 6.78132C0.280909 6.70882 0.384937 6.70882 0.410215 6.78132Z" fill="#F5F5F5"/>
<path d="M0.410215 9.70611L0.599798 10.2651L1.20063 10.2699C1.27841 10.2708 1.31049 10.3681 1.24827 10.413L0.765075 10.7631L0.945909 11.3249C0.969242 11.3974 0.884659 11.4575 0.821464 11.4137L0.333409 11.0702L-0.154647 11.4127C-0.217841 11.4566 -0.302424 11.3965 -0.279091 11.324L-0.0982578 10.7621L-0.581452 10.412C-0.643674 10.3662 -0.611591 10.2699 -0.533813 10.2689L0.0670201 10.2642L0.256603 9.70515C0.280909 9.63361 0.384937 9.63361 0.410215 9.70611Z" fill="#F5F5F5"/>
<path d="M0.410215 12.6299L0.599798 13.1889L1.20063 13.1937C1.27841 13.1947 1.31049 13.292 1.24827 13.3368L0.765075 13.6869L0.945909 14.2488C0.969242 14.3213 0.884659 14.3814 0.821464 14.3375L0.333409 13.9941L-0.154647 14.3365C-0.217841 14.3804 -0.302424 14.3203 -0.279091 14.2478L-0.0982578 13.686L-0.581452 13.3359C-0.643674 13.2901 -0.611591 13.1937 -0.533813 13.1928L0.0670201 13.188L0.256603 12.629C0.280909 12.5574 0.384937 12.5574 0.410215 12.6299Z" fill="#F5F5F5"/>
<path d="M2.72319 2.36646L2.91278 2.92547L3.51361 2.93024C3.59139 2.9312 3.62347 3.0285 3.56125 3.07333L3.07806 3.42343L3.25889 3.9853C3.28222 4.0578 3.19764 4.1179 3.13444 4.07402L2.64542 3.73155L2.15639 4.07402C2.09319 4.1179 2.00861 4.0578 2.03194 3.9853L2.21278 3.42343L1.72958 3.07333C1.66736 3.02754 1.69944 2.9312 1.77722 2.93024L2.37806 2.92547L2.56958 2.36646C2.59486 2.29396 2.69889 2.29396 2.72319 2.36646Z" fill="#F5F5F5"/>
<path d="M2.72319 5.29125L2.91278 5.85026L3.51361 5.85503C3.59139 5.85599 3.62347 5.95329 3.56125 5.99812L3.07806 6.34822L3.25889 6.91009C3.28222 6.98259 3.19764 7.04269 3.13444 6.99881L2.64542 6.65634L2.15639 6.99881C2.09319 7.04269 2.00861 6.98354 2.03194 6.91009L2.21278 6.34822L1.72958 5.99812C1.66736 5.95233 1.69944 5.85599 1.77722 5.85503L2.37806 5.85026L2.56958 5.29125C2.59486 5.21875 2.69889 5.21875 2.72319 5.29125Z" fill="#F5F5F5"/>
<path d="M2.72319 8.21508L2.91278 8.77409L3.51361 8.77886C3.59139 8.77981 3.62347 8.87712 3.56125 8.92195L3.07806 9.27205L3.25889 9.83392C3.28222 9.90642 3.19764 9.96652 3.13444 9.92264L2.64542 9.58017L2.15639 9.92264C2.09319 9.96652 2.00861 9.90642 2.03194 9.83392L2.21278 9.27205L1.72958 8.92195C1.66736 8.87616 1.69944 8.77981 1.77722 8.77886L2.37806 8.77409L2.56958 8.21508C2.59486 8.14258 2.69889 8.14258 2.72319 8.21508Z" fill="#F5F5F5"/>
<path d="M2.72319 11.1389L2.91278 11.6979L3.51361 11.7027C3.59139 11.7037 3.62347 11.801 3.56125 11.8458L3.07806 12.1959L3.25889 12.7578C3.28222 12.8303 3.19764 12.8904 3.13444 12.8465L2.64542 12.504L2.15639 12.8465C2.09319 12.8904 2.00861 12.8303 2.03194 12.7578L2.21278 12.1959L1.72958 11.8458C1.66736 11.8 1.69944 11.7037 1.77722 11.7027L2.37806 11.6979L2.56764 11.1389C2.59486 11.0674 2.69889 11.0674 2.72319 11.1389Z" fill="#F5F5F5"/>
<path d="M5.03716 0.932686L5.22674 1.4917L5.82758 1.49647C5.90535 1.49742 5.93744 1.59472 5.87522 1.63956L5.39202 1.98966L5.57285 2.55153C5.59619 2.62403 5.5116 2.68413 5.44841 2.64024L4.95938 2.29778L4.47035 2.64024C4.40716 2.68413 4.32258 2.62403 4.34591 2.55153L4.52674 1.98966L4.04355 1.63956C3.98133 1.59377 4.01341 1.49647 4.09119 1.49647L4.69202 1.4917L4.8816 0.932686C4.90785 0.860186 5.01188 0.860186 5.03716 0.932686Z" fill="#F5F5F5"/>
<path d="M5.03668 3.85748L5.22626 4.41649L5.8271 4.42126C5.90487 4.42221 5.93696 4.51951 5.87473 4.56435L5.39154 4.91444L5.57237 5.47632C5.59571 5.54882 5.51112 5.60892 5.44793 5.56503L4.9589 5.22257L4.46987 5.56503C4.40668 5.60892 4.3221 5.54882 4.34543 5.47632L4.52821 4.91444L4.04501 4.56435C3.98279 4.51856 4.01487 4.42221 4.09265 4.42126L4.69348 4.41649L4.88307 3.85748C4.90737 3.78498 5.0114 3.78498 5.03668 3.85748Z" fill="#F5F5F5"/>
<path d="M5.03716 6.78132L5.22674 7.34033L5.82758 7.3451C5.90535 7.34605 5.93744 7.44336 5.87522 7.48819L5.39202 7.83829L5.57285 8.40016C5.59619 8.47266 5.5116 8.53276 5.44841 8.48888L4.95938 8.14641L4.47035 8.48888C4.40716 8.53276 4.32258 8.47266 4.34591 8.40016L4.52674 7.83829L4.04355 7.48819C3.98133 7.4424 4.01341 7.34605 4.09119 7.3451L4.69202 7.34033L4.8816 6.78132C4.90785 6.70882 5.01188 6.70882 5.03716 6.78132Z" fill="#F5F5F5"/>
<path d="M5.03716 9.70609L5.22674 10.2651L5.82758 10.2699C5.90535 10.2708 5.93744 10.3681 5.87522 10.413L5.39202 10.7631L5.57285 11.3249C5.59619 11.3974 5.5116 11.4575 5.44841 11.4137L4.95938 11.0712L4.47035 11.4137C4.40716 11.4575 4.32258 11.3974 4.34591 11.3249L4.52674 10.7631L4.04355 10.413C3.98133 10.3672 4.01341 10.2708 4.09119 10.2699L4.69202 10.2651L4.8816 9.70609C4.90785 9.63359 5.01188 9.63359 5.03716 9.70609Z" fill="#F5F5F5"/>
<path d="M5.03716 12.6299L5.22674 13.1889L5.82758 13.1937C5.90535 13.1947 5.93744 13.292 5.87522 13.3368L5.39202 13.6869L5.57285 14.2488C5.59619 14.3213 5.5116 14.3814 5.44841 14.3375L4.95938 13.995L4.47035 14.3375C4.40716 14.3814 4.32258 14.3213 4.34591 14.2488L4.52674 13.6869L4.04355 13.3368C3.98133 13.291 4.01341 13.1947 4.09119 13.1937L4.69202 13.1889L4.8816 12.6299C4.90785 12.5574 5.01188 12.5574 5.03716 12.6299Z" fill="#F5F5F5"/>
<path d="M7.35015 2.36646L7.53973 2.92547L8.14056 2.93024C8.21834 2.9312 8.25043 3.0285 8.1882 3.07333L7.70501 3.42343L7.88584 3.9853C7.90918 4.0578 7.82459 4.1179 7.7614 4.07402L7.27237 3.73155L6.78334 4.07402C6.72015 4.1179 6.63556 4.0578 6.6589 3.9853L6.83973 3.42343L6.35654 3.07333C6.29431 3.02754 6.3264 2.9312 6.40418 2.93024L7.00501 2.92547L7.19459 2.36646C7.22084 2.29396 7.32584 2.29396 7.35015 2.36646Z" fill="#F5F5F5"/>
<path d="M7.35015 5.29125L7.53973 5.85026L8.14056 5.85503C8.21834 5.85599 8.25043 5.95329 8.1882 5.99812L7.70501 6.34822L7.88584 6.91009C7.90918 6.98259 7.82459 7.04269 7.7614 6.99881L7.27237 6.65634L6.78334 6.99881C6.72015 7.04269 6.63556 6.98354 6.6589 6.91009L6.83973 6.34822L6.35654 5.99812C6.29431 5.95233 6.3264 5.85599 6.40418 5.85503L7.00501 5.85026L7.19459 5.29125C7.22084 5.21875 7.32584 5.21875 7.35015 5.29125Z" fill="#F5F5F5"/>
<path d="M7.35015 8.21508L7.53973 8.77409L8.14056 8.77886C8.21834 8.77981 8.25043 8.87712 8.1882 8.92195L7.70501 9.27205L7.88584 9.83392C7.90918 9.90642 7.82459 9.96652 7.7614 9.92264L7.27237 9.58017L6.78334 9.92264C6.72015 9.96652 6.63556 9.90642 6.6589 9.83392L6.83973 9.27205L6.35654 8.92195C6.29431 8.87616 6.3264 8.77981 6.40418 8.77886L7.00501 8.77409L7.19459 8.21508C7.22084 8.14258 7.32584 8.14258 7.35015 8.21508Z" fill="#F5F5F5"/>
<path d="M7.35015 11.1389L7.53973 11.6979L8.14056 11.7027C8.21834 11.7037 8.25043 11.801 8.1882 11.8458L7.70501 12.1959L7.88584 12.7578C7.90918 12.8303 7.82459 12.8904 7.7614 12.8465L7.27237 12.504L6.78334 12.8465C6.72015 12.8904 6.63556 12.8303 6.6589 12.7578L6.83973 12.1959L6.35654 11.8458C6.29431 11.8 6.3264 11.7037 6.40418 11.7027L7.00501 11.6979L7.19459 11.1389C7.22084 11.0674 7.32584 11.0674 7.35015 11.1389Z" fill="#F5F5F5"/>
<path d="M9.66265 0.932686L9.85223 1.4917L10.4531 1.49647C10.5308 1.49742 10.5629 1.59472 10.5007 1.63956L10.0175 1.98966L10.1983 2.55153C10.2217 2.62403 10.1371 2.68413 10.0739 2.64024L9.58487 2.29778L9.09584 2.64024C9.03265 2.68413 8.94806 2.62403 8.9714 2.55153L9.15223 1.98966L8.66904 1.63956C8.60681 1.59377 8.6389 1.49647 8.71668 1.49647L9.31751 1.4917L9.50709 0.932686C9.53431 0.860186 9.63834 0.860186 9.66265 0.932686Z" fill="#F5F5F5"/>
<path d="M9.66265 3.85748L9.85223 4.41649L10.4531 4.42126C10.5308 4.42221 10.5629 4.51951 10.5007 4.56435L10.0175 4.91444L10.1983 5.47632C10.2217 5.54882 10.1371 5.60892 10.0739 5.56503L9.58487 5.22257L9.09584 5.56503C9.03265 5.60892 8.94806 5.54882 8.9714 5.47632L9.15223 4.91444L8.66904 4.56435C8.60681 4.51856 8.6389 4.42221 8.71668 4.42126L9.31751 4.41649L9.50709 3.85748C9.53431 3.78498 9.63834 3.78498 9.66265 3.85748Z" fill="#F5F5F5"/>
<path d="M9.66265 6.78132L9.85223 7.34033L10.4531 7.3451C10.5308 7.34605 10.5629 7.44336 10.5007 7.48819L10.0175 7.83829L10.1983 8.40016C10.2217 8.47266 10.1371 8.53276 10.0739 8.48888L9.58487 8.14641L9.09584 8.48888C9.03265 8.53276 8.94806 8.47266 8.9714 8.40016L9.15223 7.83829L8.66904 7.48819C8.60681 7.4424 8.6389 7.34605 8.71668 7.3451L9.31751 7.34033L9.50709 6.78132C9.53431 6.70882 9.63834 6.70882 9.66265 6.78132Z" fill="#F5F5F5"/>
<path d="M9.66265 9.70609L9.85223 10.2651L10.4531 10.2699C10.5308 10.2708 10.5629 10.3681 10.5007 10.413L10.0175 10.7631L10.1983 11.3249C10.2217 11.3974 10.1371 11.4575 10.0739 11.4137L9.58487 11.0712L9.09584 11.4137C9.03265 11.4575 8.94806 11.3974 8.9714 11.3249L9.15223 10.7631L8.66904 10.413C8.60681 10.3672 8.6389 10.2708 8.71668 10.2699L9.31751 10.2651L9.50709 9.70609C9.53431 9.63359 9.63834 9.63359 9.66265 9.70609Z" fill="#F5F5F5"/>
<path d="M9.66265 12.6299L9.85223 13.1889L10.4531 13.1937C10.5308 13.1947 10.5629 13.292 10.5007 13.3368L10.0175 13.6869L10.1983 14.2488C10.2217 14.3213 10.1371 14.3814 10.0739 14.3375L9.58487 13.995L9.09584 14.3375C9.03265 14.3814 8.94806 14.3213 8.9714 14.2488L9.15223 13.6869L8.66904 13.3368C8.60681 13.291 8.6389 13.1947 8.71668 13.1937L9.31751 13.1889L9.50709 12.6299C9.53431 12.5574 9.63834 12.5574 9.66265 12.6299Z" fill="#F5F5F5"/>
<path d="M11.9761 2.36646L12.1657 2.92547L12.7665 2.93024C12.8443 2.9312 12.8764 3.0285 12.8142 3.07333L12.331 3.42343L12.5118 3.9853C12.5352 4.0578 12.4506 4.1179 12.3874 4.07402L11.8993 3.73155L11.4113 4.07402C11.3481 4.1179 11.2635 4.0578 11.2868 3.9853L11.4677 3.42343L10.9845 3.07333C10.9222 3.02754 10.9543 2.9312 11.0321 2.93024L11.6329 2.92547L11.8225 2.36646C11.8468 2.29396 11.9509 2.29396 11.9761 2.36646Z" fill="#F5F5F5"/>
<path d="M11.9761 5.29125L12.1657 5.85026L12.7665 5.85503C12.8443 5.85599 12.8764 5.95329 12.8142 5.99812L12.331 6.34822L12.5118 6.91009C12.5352 6.98259 12.4506 7.04269 12.3874 6.99881L11.8993 6.65634L11.4113 6.99881C11.3481 7.04269 11.2635 6.98354 11.2868 6.91009L11.4677 6.34822L10.9845 5.99812C10.9222 5.95233 10.9543 5.85599 11.0321 5.85503L11.6329 5.85026L11.8225 5.29125C11.8468 5.21875 11.9509 5.21875 11.9761 5.29125Z" fill="#F5F5F5"/>
<path d="M11.9761 8.21508L12.1657 8.77409L12.7665 8.77886C12.8443 8.77981 12.8764 8.87712 12.8142 8.92195L12.331 9.27205L12.5118 9.83392C12.5352 9.90642 12.4506 9.96652 12.3874 9.92264L11.8993 9.58017L11.4113 9.92264C11.3481 9.96652 11.2635 9.90642 11.2868 9.83392L11.4677 9.27205L10.9845 8.92195C10.9222 8.87616 10.9543 8.77981 11.0321 8.77886L11.6329 8.77409L11.8225 8.21508C11.8468 8.14258 11.9509 8.14258 11.9761 8.21508Z" fill="#F5F5F5"/>
<path d="M11.9761 11.1389L12.1657 11.6979L12.7665 11.7027C12.8443 11.7037 12.8764 11.801 12.8142 11.8458L12.331 12.1959L12.5118 12.7578C12.5352 12.8303 12.4506 12.8904 12.3874 12.8465L11.8993 12.504L11.4113 12.8465C11.3481 12.8904 11.2635 12.8303 11.2868 12.7578L11.4677 12.1959L10.9845 11.8458C10.9222 11.8 10.9543 11.7037 11.0321 11.7027L11.6329 11.6979L11.8225 11.1389C11.8468 11.0674 11.9509 11.0674 11.9761 11.1389Z" fill="#F5F5F5"/>
<path d="M14.2896 0.932686L14.4792 1.4917L15.08 1.49647C15.1578 1.49742 15.1899 1.59472 15.1277 1.63956L14.6445 1.98966L14.8253 2.55153C14.8486 2.62403 14.7641 2.68413 14.7009 2.64024L14.2128 2.29778L13.7247 2.64024C13.6616 2.68413 13.577 2.62403 13.6003 2.55153L13.7811 1.98966L13.2979 1.63956C13.2357 1.59377 13.2678 1.49647 13.3456 1.49647L13.9464 1.4917L14.136 0.932686C14.1603 0.860186 14.2653 0.860186 14.2896 0.932686Z" fill="#F5F5F5"/>
<path d="M14.2896 3.85748L14.4792 4.41649L15.08 4.42126C15.1578 4.42221 15.1899 4.51951 15.1277 4.56435L14.6445 4.91444L14.8253 5.47632C14.8486 5.54882 14.7641 5.60892 14.7009 5.56503L14.2128 5.22257L13.7247 5.56503C13.6616 5.60892 13.577 5.54882 13.6003 5.47632L13.7811 4.91444L13.2979 4.56435C13.2357 4.51856 13.2678 4.42221 13.3456 4.42126L13.9464 4.41649L14.136 3.85748C14.1603 3.78498 14.2653 3.78498 14.2896 3.85748Z" fill="#F5F5F5"/>
<path d="M14.2896 6.78132L14.4792 7.34033L15.08 7.3451C15.1578 7.34605 15.1899 7.44336 15.1277 7.48819L14.6445 7.83829L14.8253 8.40016C14.8486 8.47266 14.7641 8.53276 14.7009 8.48888L14.2128 8.14641L13.7247 8.48888C13.6616 8.53276 13.577 8.47266 13.6003 8.40016L13.7811 7.83829L13.2979 7.48819C13.2357 7.4424 13.2678 7.34605 13.3456 7.3451L13.9464 7.34033L14.136 6.78132C14.1603 6.70882 14.2653 6.70882 14.2896 6.78132Z" fill="#F5F5F5"/>
<path d="M14.2896 9.70609L14.4792 10.2651L15.08 10.2699C15.1578 10.2708 15.1899 10.3681 15.1277 10.413L14.6445 10.7631L14.8253 11.3249C14.8486 11.3974 14.7641 11.4575 14.7009 11.4137L14.2128 11.0712L13.7247 11.4137C13.6616 11.4575 13.577 11.3974 13.6003 11.3249L13.7811 10.7631L13.2979 10.413C13.2357 10.3672 13.2678 10.2708 13.3456 10.2699L13.9464 10.2651L14.136 9.70609C14.1603 9.63359 14.2653 9.63359 14.2896 9.70609Z" fill="#F5F5F5"/>
<path d="M14.2896 12.6299L14.4792 13.1889L15.08 13.1937C15.1578 13.1947 15.1899 13.292 15.1277 13.3368L14.6445 13.6869L14.8253 14.2488C14.8486 14.3213 14.7641 14.3814 14.7009 14.3375L14.2128 13.995L13.7247 14.3375C13.6616 14.3814 13.577 14.3213 13.6003 14.2488L13.7811 13.6869L13.2979 13.3368C13.2357 13.291 13.2678 13.1947 13.3456 13.1937L13.9464 13.1889L14.136 12.6299C14.1603 12.5574 14.2653 12.5574 14.2896 12.6299Z" fill="#F5F5F5"/>
<path d="M16.6026 2.36646L16.7922 2.92547L17.393 2.93024C17.4708 2.9312 17.5029 3.0285 17.4406 3.07333L16.9575 3.42343L17.1383 3.9853C17.1616 4.0578 17.077 4.1179 17.0138 4.07402L16.5258 3.73155L16.0377 4.07402C15.9745 4.1179 15.89 4.0578 15.9133 3.9853L16.0941 3.42343L15.6109 3.07333C15.5487 3.02754 15.5808 2.9312 15.6586 2.93024L16.2594 2.92547L16.449 2.36646C16.4743 2.29396 16.5783 2.29396 16.6026 2.36646Z" fill="#F5F5F5"/>
<path d="M16.6026 5.29125L16.7922 5.85026L17.393 5.85503C17.4708 5.85599 17.5029 5.95329 17.4406 5.99812L16.9575 6.34822L17.1383 6.91009C17.1616 6.98259 17.077 7.04269 17.0138 6.99881L16.5258 6.65634L16.0377 6.99881C15.9745 7.04269 15.89 6.98354 15.9133 6.91009L16.0941 6.34822L15.6109 5.99812C15.5487 5.95233 15.5808 5.85599 15.6586 5.85503L16.2594 5.85026L16.449 5.29125C16.4743 5.21875 16.5783 5.21875 16.6026 5.29125Z" fill="#F5F5F5"/>
<path d="M16.6026 8.21508L16.7922 8.77409L17.393 8.77886C17.4708 8.77981 17.5029 8.87712 17.4406 8.92195L16.9575 9.27205L17.1383 9.83392C17.1616 9.90642 17.077 9.96652 17.0138 9.92264L16.5258 9.58017L16.0377 9.92264C15.9745 9.96652 15.89 9.90642 15.9133 9.83392L16.0941 9.27205L15.6109 8.92195C15.5487 8.87616 15.5808 8.77981 15.6586 8.77886L16.2594 8.77409L16.449 8.21508C16.4743 8.14258 16.5783 8.14258 16.6026 8.21508Z" fill="#F5F5F5"/>
<path d="M16.6026 11.1389L16.7922 11.6979L17.393 11.7027C17.4708 11.7037 17.5029 11.801 17.4406 11.8458L16.9575 12.1959L17.1383 12.7578C17.1616 12.8303 17.077 12.8904 17.0138 12.8465L16.5258 12.504L16.0377 12.8465C15.9745 12.8904 15.89 12.8303 15.9133 12.7578L16.0941 12.1959L15.6109 11.8458C15.5487 11.8 15.5808 11.7037 15.6586 11.7027L16.2594 11.6979L16.449 11.1389C16.4743 11.0674 16.5783 11.0674 16.6026 11.1389Z" fill="#F5F5F5"/>
<path d="M18.9166 0.932686L19.1061 1.4917L19.707 1.49647C19.7848 1.49742 19.8168 1.59472 19.7546 1.63956L19.2714 1.98966L19.4523 2.55153C19.4756 2.62403 19.391 2.68413 19.3278 2.64024L18.8398 2.29778L18.3517 2.64024C18.2885 2.68413 18.2039 2.62403 18.2273 2.55153L18.4081 1.98966L17.9249 1.63956C17.8627 1.59377 17.8948 1.49647 17.9725 1.49647L18.5734 1.4917L18.7629 0.932686C18.7873 0.860186 18.8913 0.860186 18.9166 0.932686Z" fill="#F5F5F5"/>
<path d="M18.9166 3.85748L19.1061 4.41649L19.707 4.42126C19.7848 4.42221 19.8168 4.51951 19.7546 4.56435L19.2714 4.91444L19.4523 5.47632C19.4756 5.54882 19.391 5.60892 19.3278 5.56503L18.8398 5.22257L18.3517 5.56503C18.2885 5.60892 18.2039 5.54882 18.2273 5.47632L18.4081 4.91444L17.9249 4.56435C17.8627 4.51856 17.8948 4.42221 17.9725 4.42126L18.5734 4.41649L18.7629 3.85748C18.7873 3.78498 18.8913 3.78498 18.9166 3.85748Z" fill="#F5F5F5"/>
<path d="M18.9166 6.78132L19.1061 7.34033L19.707 7.3451C19.7848 7.34605 19.8168 7.44336 19.7546 7.48819L19.2714 7.83829L19.4523 8.40016C19.4756 8.47266 19.391 8.53276 19.3278 8.48888L18.8398 8.14641L18.3517 8.48888C18.2885 8.53276 18.2039 8.47266 18.2273 8.40016L18.4081 7.83829L17.9249 7.48819C17.8627 7.4424 17.8948 7.34605 17.9725 7.3451L18.5734 7.34033L18.7629 6.78132C18.7873 6.70882 18.8913 6.70882 18.9166 6.78132Z" fill="#F5F5F5"/>
<path d="M18.9166 9.70609L19.1061 10.2651L19.707 10.2699C19.7848 10.2708 19.8168 10.3681 19.7546 10.413L19.2714 10.7631L19.4523 11.3249C19.4756 11.3974 19.391 11.4575 19.3278 11.4137L18.8398 11.0712L18.3517 11.4137C18.2885 11.4575 18.2039 11.3974 18.2273 11.3249L18.4081 10.7631L17.9249 10.413C17.8627 10.3672 17.8948 10.2708 17.9725 10.2699L18.5734 10.2651L18.7629 9.70609C18.7873 9.63359 18.8913 9.63359 18.9166 9.70609Z" fill="#F5F5F5"/>
<path d="M18.9166 12.6299L19.1061 13.1889L19.707 13.1937C19.7848 13.1947 19.8168 13.292 19.7546 13.3368L19.2714 13.6869L19.4523 14.2488C19.4756 14.3213 19.391 14.3814 19.3278 14.3375L18.8398 13.995L18.3517 14.3375C18.2885 14.3814 18.2039 14.3213 18.2273 14.2488L18.4081 13.6869L17.9249 13.3368C17.8627 13.291 17.8948 13.1947 17.9725 13.1937L18.5734 13.1889L18.7629 12.6299C18.7873 12.5574 18.8913 12.5574 18.9166 12.6299Z" fill="#F5F5F5"/>
</g>
</g>
<defs>
<clipPath id="clip0">
<rect width="49.7778" height="32" fill="white" transform="translate(-2 -1)"/>
</clipPath>
</defs>
</svg>
