<svg width="40" height="20" viewBox="0 0 40 20" fill="none" xmlns="http://www.w3.org/2000/svg">
<path d="M0.944762 18.504L3.11771 18.1497V0.955047L0.944762 0.62438V0.104762H8.36114C10.6916 0.104762 12.4236 0.600762 13.5573 1.59276C14.691 2.58476 15.2579 4.01765 15.2579 5.89143C15.2579 7.76521 14.691 9.19809 13.5573 10.1901C12.4236 11.1821 10.6916 11.6781 8.36114 11.6781H5.71581V18.1497L7.88876 18.504V19H0.944762V18.504ZM8.03048 11.1112C10.9435 11.1112 12.4 9.52876 12.4 6.36381V5.41905C12.4 2.26984 10.9435 0.695238 8.03048 0.695238H5.71581V11.1112H8.03048ZM26.9161 19.2362L19.8776 0.955047V17.5592L22.1451 18.504V19H17.0906V18.504L19.3108 17.5592V0.955047L17.1378 0.62438V0.104762H22.3576L28.286 15.2682L34.3325 0.104762H39.1035V0.62438L36.9306 0.955047V18.1497L39.1035 18.504V19H32.1595V18.504L34.3325 18.1497V1.66362L27.3413 19.2362H26.9161Z" fill="#6B71FF"/>
</svg>
