<svg width="49" height="49" viewBox="0 0 49 49" fill="none" xmlns="http://www.w3.org/2000/svg">
<path d="M33.2304 28.8268L26.3981 23.7029V13.2655C26.3981 12.2156 25.5502 11.3677 24.5003 11.3677C23.4505 11.3677 22.6025 12.2156 22.6025 13.2655V24.6522C22.6025 25.2504 22.883 25.8141 23.3615 26.1701L30.9526 31.8635C31.2943 32.1199 31.6924 32.2434 32.0896 32.2434C32.6686 32.2434 33.238 31.9831 33.6094 31.4826C34.24 30.6452 34.0687 29.4546 33.2304 28.8268Z" fill="#5669A9"/>
<path d="M24.5 0C10.9896 0 0 10.9896 0 24.5C0 38.0104 10.9896 49 24.5 49C38.0104 49 49 38.0104 49 24.5C49 10.9896 38.0104 0 24.5 0ZM24.5 45.2044C13.0855 45.2044 3.79559 35.9145 3.79559 24.5C3.79559 13.0855 13.0855 3.79559 24.5 3.79559C35.9164 3.79559 45.2044 13.0855 45.2044 24.5C45.2044 35.9145 35.9145 45.2044 24.5 45.2044Z" fill="#5669A9"/>
</svg>
