<svg width="51" height="51" viewBox="0 0 51 51" fill="none" xmlns="http://www.w3.org/2000/svg">
<path d="M25.5 0C11.4391 0 0 11.4391 0 25.5C0 39.5595 11.4391 51 25.5 51C39.5609 51 51 39.5595 51 25.5C51 11.4391 39.5609 0 25.5 0ZM25.5 46.75C13.7833 46.75 4.25 37.2167 4.25 25.5C4.25 13.7833 13.7833 4.25 25.5 4.25C37.2167 4.25 46.75 13.7833 46.75 25.5C46.75 37.2167 37.2167 46.75 25.5 46.75Z" fill="#5669A9"/>
<path d="M27.9963 12.5415C27.7174 12.4206 27.4331 12.3237 27.1476 12.24V8.5H22.8976V12.2546C20.8735 12.8669 19.1204 14.3278 18.2173 16.4156C17.4271 18.2391 17.3965 20.2605 18.1283 22.108C18.8588 23.9554 20.2653 25.407 22.1366 26.2159L26.2697 27.8893C27.0506 28.2266 27.6549 28.8482 27.9684 29.6398C28.2818 30.4313 28.2685 31.2986 27.9299 32.0795C27.5925 32.8605 26.9696 33.4648 26.1781 33.7782C25.3852 34.0916 24.5206 34.0784 23.7396 33.7397C22.5855 33.2403 21.8391 32.0915 21.8378 30.8138L21.8364 28.6888L17.5864 28.6928L17.5878 30.8178C17.5904 33.7901 19.3422 36.4677 22.0516 37.6417C22.3292 37.7626 22.6134 37.8595 22.9003 37.9445V42.5H27.1503V37.9299C27.3495 37.8688 27.5474 37.8037 27.7426 37.7254C29.5887 36.9949 31.0403 35.5871 31.8292 33.7636C32.6195 31.9401 32.65 29.92 31.9196 28.0726C31.1878 26.2265 29.7813 24.7748 27.9113 23.9647L23.7781 22.2926C22.9972 21.9552 22.3929 21.3323 22.0795 20.5408C21.766 19.7492 21.7806 18.882 22.118 18.101C22.4553 17.3201 23.0782 16.7158 23.8698 16.4023C24.66 16.0902 25.5273 16.1022 26.3096 16.4409C27.4464 16.9336 28.2101 18.0134 28.2101 19.125V21.25H32.4601V19.125C32.4601 16.2987 30.7083 13.7155 27.9963 12.5415Z" fill="#5669A9"/>
</svg>
