<svg width="55" height="46" viewBox="0 0 55 46" fill="none" xmlns="http://www.w3.org/2000/svg">
<path d="M54.8509 28.0186C54.7303 27.8067 54.5434 27.6409 54.3226 27.5475L50.378 25.8861L54.4635 23.4109C54.9796 23.1001 55.1543 22.4171 54.8509 21.8861C54.7303 21.6743 54.5434 21.5084 54.3226 21.415L50.378 19.7537L54.4635 17.2784C54.8197 17.0568 55.0229 16.6457 54.9836 16.2192C54.9525 15.7983 54.6924 15.4303 54.3118 15.2715L38.7826 8.72647L31.1318 5.3815C31.0072 5.33133 30.8758 5.30485 30.7417 5.30345L18.2794 0.0853038C17.9732 -0.0457075 17.6265 -0.0248014 17.3366 0.141053L0.637049 9.79686C0.101982 10.0742 -0.112045 10.7446 0.156166 11.2937C0.279435 11.5446 0.489398 11.7383 0.745417 11.8373L4.77671 13.5544L0.637049 15.9293C0.116883 16.2331 -0.0673432 16.9133 0.22796 17.4485C0.34581 17.6617 0.527327 17.829 0.745417 17.9251L4.77671 19.6422L0.658723 22.0171C0.1074 22.2583 -0.147265 22.9133 0.0870814 23.4806C0.208995 23.776 0.44876 24.0018 0.745417 24.1022L4.77671 25.8081L0.658723 28.183C0.138556 28.4869 -0.0456695 29.167 0.249633 29.7022C0.367484 29.9154 0.549 30.0827 0.767091 30.1789L14.7791 36.3001C14.8306 36.3378 14.8847 36.3726 14.9416 36.4005L22.6033 39.7455L36.6911 45.9114C37.0081 46.0493 37.3698 46.0256 37.6664 45.8445L54.4635 35.6758C54.9796 35.3649 55.1543 34.682 54.8509 34.1496C54.7303 33.9378 54.5434 33.7719 54.3226 33.6785L50.378 32.0172L54.4635 29.5419C54.9796 29.2325 55.153 28.5496 54.8509 28.0186ZM51.4725 22.6081L37.0271 31.3607L24.1096 25.7189V22.006L36.6803 27.5029C36.8144 27.5614 36.958 27.5921 37.1029 27.5921C37.298 27.5921 37.489 27.5377 37.6556 27.436L48.0264 21.1586L51.4725 22.6081ZM51.5159 16.4645L37.0271 25.2172L25.2908 20.0882L38.5117 11.001L51.5159 16.4645ZM14.2481 33.6688L3.61717 29.0193L7.26918 26.9119L14.2589 29.967L14.2481 33.6688ZM14.2481 27.5363L3.61717 22.8868L7.26918 20.7572L14.2589 23.8123L14.2481 27.5363ZM14.2481 21.4039L3.61717 16.7655L7.26918 14.6582L14.2589 17.7133L14.2481 21.4039ZM3.61717 10.6331L17.9434 2.34873L28.3359 6.73064L15.2451 15.7175L3.61717 10.6331ZM22.419 19.3969C22.1197 19.6046 21.9422 19.9516 21.9422 20.3224V37.0472L16.4263 34.6388V17.5906L30.7851 7.74528L36.1276 9.97526L22.419 19.3969ZM51.4725 34.873L37.0271 43.6145L24.1096 37.9726V34.2709L36.6803 39.712C36.9973 39.85 37.3589 39.8263 37.6556 39.6451L48.0264 33.3677L51.4725 34.873ZM37.0271 37.482L24.1096 31.8402V28.1384L36.6911 33.6353C37.0081 33.7733 37.3698 33.7496 37.6664 33.5684L48.0373 27.291L51.4725 28.7405L37.0271 37.482Z" fill="#5669A9"/>
</svg>
