<svg width="130" height="130" viewBox="0 0 130 130" fill="none" xmlns="http://www.w3.org/2000/svg">
<rect width="130" height="130" rx="18" fill="url(#paint0_linear)"/>
<g filter="url(#filter0_d)">
<rect x="28" y="27" width="76" height="83" rx="4" fill="#8400E4"/>
</g>
<g filter="url(#filter1_d)">
<rect x="34" y="34" width="64" height="69" rx="3" fill="url(#paint1_linear)"/>
</g>
<path d="M51.4192 58.3871C51.0102 58.3871 50.6772 58.0542 50.6772 57.6452H49.1934C49.1934 58.8722 50.1922 59.871 51.4192 59.871V61.3549H52.903V59.871H55.1288V57.6452C55.1288 56.4182 54.13 55.4194 52.903 55.4194H51.4192C51.0102 55.4194 50.6772 55.0864 50.6772 54.6775V53.9355H52.903C53.312 53.9355 53.645 54.2685 53.645 54.6775H55.1288C55.1288 53.4505 54.13 52.4516 52.903 52.4516V50.9678H51.4192V52.4516H49.1934V54.6775C49.1934 55.9044 50.1922 56.9033 51.4192 56.9033H52.903C53.312 56.9033 53.645 57.2362 53.645 57.6452V58.3871H51.4192Z" fill="#EDDDFF"/>
<g filter="url(#filter2_d)">
<path d="M52.1613 64.3226C56.6611 64.3226 60.3226 60.6611 60.3226 56.1613C60.3226 51.6615 56.6611 48 52.1613 48C47.6615 48 44 51.6615 44 56.1613C44 60.6611 47.6615 64.3226 52.1613 64.3226ZM52.1613 49.4839C55.8431 49.4839 58.8387 52.4794 58.8387 56.1613C58.8387 59.8431 55.8431 62.8387 52.1613 62.8387C48.4794 62.8387 45.4839 59.8431 45.4839 56.1613C45.4839 52.4794 48.4794 49.4839 52.1613 49.4839Z" fill="url(#paint2_linear)"/>
</g>
<g filter="url(#filter3_d)">
<path d="M52.1613 77.6772C47.6615 77.6772 44 81.3387 44 85.8385C44 90.3384 47.6615 93.9998 52.1613 93.9998C56.6611 93.9998 60.3226 90.3384 60.3226 85.8385C60.3226 81.3387 56.6611 77.6772 52.1613 77.6772ZM52.1613 92.516C48.4794 92.516 45.4839 89.5204 45.4839 85.8385C45.4839 82.1567 48.4794 79.1611 52.1613 79.1611C55.8431 79.1611 58.8387 82.1567 58.8387 85.8385C58.8387 89.5204 55.8431 92.516 52.1613 92.516Z" fill="url(#paint3_linear)"/>
</g>
<g filter="url(#filter4_d)">
<path d="M67.7417 65.8066V64.3228H66.2578V65.8066H64.7739V76.1937H66.2578V77.6776H67.7417V76.1937C69.3786 76.1937 70.7094 74.8629 70.7094 73.226C70.7094 72.3412 70.3199 71.5436 69.7022 71.0002C70.3199 70.4567 70.7094 69.6591 70.7094 68.7744C70.7094 67.1375 69.3786 65.8066 67.7417 65.8066ZM67.7417 74.7099H66.2578V71.7421H67.7417C68.5597 71.7421 69.2255 72.408 69.2255 73.226C69.2255 74.044 68.5597 74.7099 67.7417 74.7099ZM67.7417 70.2582H66.2578V67.2905H67.7417C68.5597 67.2905 69.2255 67.9564 69.2255 68.7744C69.2255 69.5924 68.5597 70.2582 67.7417 70.2582Z" fill="#EDDDFF"/>
</g>
<g filter="url(#filter5_d)">
<path d="M82.1457 68.7742H85.6847C85.9917 69.6358 86.8078 70.2581 87.7742 70.2581C89.0012 70.2581 90 69.2592 90 68.0323C90 66.8053 89.0012 65.8065 87.7742 65.8065C86.8078 65.8065 85.9917 66.4288 85.6847 67.2903H81.5317L80.0479 68.7742H76.3762C75.5378 65.2426 72.7574 62.4631 69.2258 61.6238V57.9521L70.7097 56.4683V52.3153C71.5713 52.0083 72.1935 51.1922 72.1935 50.2258C72.1935 48.9988 71.1947 48 69.9677 48C68.7408 48 67.7419 48.9988 67.7419 50.2258C67.7419 51.1922 68.3642 52.0083 69.2258 52.3153V55.8543L67.7419 57.3382V61.3929C67.4962 61.3734 67.2504 61.3548 67 61.3548C66.7496 61.3548 66.5038 61.3734 66.2581 61.3929V57.3382L64.7742 55.8543V52.3153C65.6358 52.0083 66.2581 51.1922 66.2581 50.2258C66.2581 48.9988 65.2592 48 64.0323 48C62.8053 48 61.8065 48.9988 61.8065 50.2258C61.8065 51.1922 62.4288 52.0083 63.2903 52.3153V56.4683L64.7742 57.9521V61.6238C61.2426 62.4622 58.4631 65.2426 57.6238 68.7742H53.9521L52.4683 67.2903H48.3153C48.0083 66.4288 47.1922 65.8065 46.2258 65.8065C44.9988 65.8065 44 66.8053 44 68.0323C44 69.2592 44.9988 70.2581 46.2258 70.2581C47.1922 70.2581 48.0083 69.6358 48.3153 68.7742H51.8543L53.3382 70.2581H57.3929C57.3734 70.5038 57.3548 70.7496 57.3548 71C57.3548 71.2504 57.3734 71.4962 57.3929 71.7419H53.3382L51.8543 73.2258H48.3153C48.0083 72.3642 47.1922 71.7419 46.2258 71.7419C44.9988 71.7419 44 72.7408 44 73.9677C44 75.1947 44.9988 76.1935 46.2258 76.1935C47.1922 76.1935 48.0083 75.5713 48.3153 74.7097H52.4683L53.9521 73.2258H57.6238C58.4622 76.7574 61.2426 79.5369 64.7742 80.3762V84.0479L63.2903 85.5317V89.6847C62.4288 89.9917 61.8065 90.8078 61.8065 91.7742C61.8065 93.0012 62.8053 94 64.0323 94C65.2592 94 66.2581 93.0012 66.2581 91.7742C66.2581 90.8078 65.6358 89.9917 64.7742 89.6847V86.1457L66.2581 84.6618V80.6071C66.5038 80.6266 66.7496 80.6452 67 80.6452C67.2504 80.6452 67.4962 80.6266 67.7419 80.6071V84.6618L69.2258 86.1457V89.6847C68.3642 89.9917 67.7419 90.8078 67.7419 91.7742C67.7419 93.0012 68.7408 94 69.9677 94C71.1947 94 72.1935 93.0012 72.1935 91.7742C72.1935 90.8078 71.5713 89.9917 70.7097 89.6847V85.5317L69.2258 84.0479V80.3762C72.7574 79.5378 75.5369 76.7574 76.3762 73.2258H80.0479L81.5317 74.7097H85.6847C85.9917 75.5713 86.8078 76.1935 87.7742 76.1935C89.0012 76.1935 90 75.1947 90 73.9677C90 72.7408 89.0012 71.7419 87.7742 71.7419C86.8078 71.7419 85.9917 72.3642 85.6847 73.2258H82.1457L80.6618 71.7419H76.6071C76.6266 71.4962 76.6452 71.2504 76.6452 71C76.6452 70.7496 76.6266 70.5038 76.6071 70.2581H80.6618L82.1457 68.7742ZM87.7742 67.2903C88.1832 67.2903 88.5161 67.6233 88.5161 68.0323C88.5161 68.4412 88.1832 68.7742 87.7742 68.7742C87.3652 68.7742 87.0323 68.4412 87.0323 68.0323C87.0323 67.6233 87.3652 67.2903 87.7742 67.2903ZM69.9677 49.4839C70.3767 49.4839 70.7097 49.8168 70.7097 50.2258C70.7097 50.6348 70.3767 50.9677 69.9677 50.9677C69.5588 50.9677 69.2258 50.6348 69.2258 50.2258C69.2258 49.8168 69.5588 49.4839 69.9677 49.4839ZM64.0323 49.4839C64.4412 49.4839 64.7742 49.8168 64.7742 50.2258C64.7742 50.6348 64.4412 50.9677 64.0323 50.9677C63.6233 50.9677 63.2903 50.6348 63.2903 50.2258C63.2903 49.8168 63.6233 49.4839 64.0323 49.4839ZM46.2258 68.7742C45.8168 68.7742 45.4839 68.4412 45.4839 68.0323C45.4839 67.6233 45.8168 67.2903 46.2258 67.2903C46.6348 67.2903 46.9677 67.6233 46.9677 68.0323C46.9677 68.4412 46.6348 68.7742 46.2258 68.7742ZM46.2258 74.7097C45.8168 74.7097 45.4839 74.3767 45.4839 73.9677C45.4839 73.5588 45.8168 73.2258 46.2258 73.2258C46.6348 73.2258 46.9677 73.5588 46.9677 73.9677C46.9677 74.3767 46.6348 74.7097 46.2258 74.7097ZM64.0323 92.5161C63.6233 92.5161 63.2903 92.1832 63.2903 91.7742C63.2903 91.3652 63.6233 91.0323 64.0323 91.0323C64.4412 91.0323 64.7742 91.3652 64.7742 91.7742C64.7742 92.1832 64.4412 92.5161 64.0323 92.5161ZM69.9677 92.5161C69.5588 92.5161 69.2258 92.1832 69.2258 91.7742C69.2258 91.3652 69.5588 91.0323 69.9677 91.0323C70.3767 91.0323 70.7097 91.3652 70.7097 91.7742C70.7097 92.1832 70.3767 92.5161 69.9677 92.5161ZM87.7742 73.2258C88.1832 73.2258 88.5161 73.5588 88.5161 73.9677C88.5161 74.3767 88.1832 74.7097 87.7742 74.7097C87.3652 74.7097 87.0323 74.3767 87.0323 73.9677C87.0323 73.5588 87.3652 73.2258 87.7742 73.2258ZM67 79.1613C62.5002 79.1613 58.8387 75.4998 58.8387 71C58.8387 66.5002 62.5002 62.8387 67 62.8387C71.4998 62.8387 75.1613 66.5002 75.1613 71C75.1613 75.4998 71.4998 79.1613 67 79.1613Z" fill="url(#paint4_linear)"/>
</g>
<g filter="url(#filter6_d)">
<path d="M81.839 64.3226C86.3389 64.3226 90.0003 60.6611 90.0003 56.1613C90.0003 51.6615 86.3389 48 81.839 48C77.3392 48 73.6777 51.6615 73.6777 56.1613C73.6777 60.6611 77.3392 64.3226 81.839 64.3226ZM81.839 49.4839C85.5209 49.4839 88.5164 52.4794 88.5164 56.1613C88.5164 59.8431 85.5209 62.8387 81.839 62.8387C78.1572 62.8387 75.1616 59.8431 75.1616 56.1613C75.1616 52.4794 78.1572 49.4839 81.839 49.4839Z" fill="url(#paint5_linear)"/>
</g>
<g filter="url(#filter7_d)">
<path d="M81.839 77.6772C77.3392 77.6772 73.6777 81.3387 73.6777 85.8385C73.6777 90.3384 77.3392 93.9998 81.839 93.9998C86.3389 93.9998 90.0003 90.3384 90.0003 85.8385C90.0003 81.3387 86.3389 77.6772 81.839 77.6772ZM81.839 92.516C78.1572 92.516 75.1616 89.5204 75.1616 85.8385C75.1616 82.1567 78.1572 79.1611 81.839 79.1611C85.5209 79.1611 88.5164 82.1567 88.5164 85.8385C88.5164 89.5204 85.5209 92.516 81.839 92.516Z" fill="url(#paint6_linear)"/>
</g>
<path d="M81.8388 61.3549C83.4757 61.3549 84.8066 60.024 84.8066 58.3871H83.3227C83.3227 59.2051 82.6568 59.871 81.8388 59.871C81.0208 59.871 80.3549 59.2051 80.3549 58.3871H81.8388V56.9033H80.3549V55.4194H81.8388V53.9355H80.3549C80.3549 53.1175 81.0208 52.4516 81.8388 52.4516C82.6568 52.4516 83.3227 53.1175 83.3227 53.9355H84.8066C84.8066 52.2986 83.4757 50.9678 81.8388 50.9678C80.2019 50.9678 78.8711 52.2986 78.8711 53.9355H77.3872V55.4194H78.8711V56.9033H77.3872V58.3871H78.8711C78.8711 60.024 80.2019 61.3549 81.8388 61.3549Z" fill="#EDDDFF"/>
<path d="M85.3316 81.9122L84.2826 80.8633L81.8389 83.3061L79.3961 80.8633L78.3472 81.9122L81.097 84.662V85.0969H79.6131V86.5808H81.097V88.0647H79.6131V89.5486H81.097V91.0324H82.5808V89.5486H84.0647V88.0647H82.5808V86.5808H84.0647V85.0969H82.5808V84.662L85.3316 81.9122Z" fill="#EDDDFF"/>
<path d="M49.1938 84.3549V85.0969H47.71V86.5808H49.1938V91.0324H54.3874V89.5485H50.6777V86.5808H52.1616V85.0969H50.6777V84.3549C50.6777 83.128 51.6765 82.1291 52.9035 82.1291H54.3874V80.6453H52.9035C50.8576 80.6453 49.1938 82.3091 49.1938 84.3549Z" fill="#EDDDFF"/>
<defs>
<filter id="filter0_d" x="24" y="27" width="84" height="91" filterUnits="userSpaceOnUse" color-interpolation-filters="sRGB">
<feFlood flood-opacity="0" result="BackgroundImageFix"/>
<feColorMatrix in="SourceAlpha" type="matrix" values="0 0 0 0 0 0 0 0 0 0 0 0 0 0 0 0 0 0 127 0"/>
<feOffset dy="4"/>
<feGaussianBlur stdDeviation="2"/>
<feColorMatrix type="matrix" values="0 0 0 0 0 0 0 0 0 0 0 0 0 0 0 0 0 0 0.22 0"/>
<feBlend mode="normal" in2="BackgroundImageFix" result="effect1_dropShadow"/>
<feBlend mode="normal" in="SourceGraphic" in2="effect1_dropShadow" result="shape"/>
</filter>
<filter id="filter1_d" x="29" y="31" width="74" height="79" filterUnits="userSpaceOnUse" color-interpolation-filters="sRGB">
<feFlood flood-opacity="0" result="BackgroundImageFix"/>
<feColorMatrix in="SourceAlpha" type="matrix" values="0 0 0 0 0 0 0 0 0 0 0 0 0 0 0 0 0 0 127 0"/>
<feOffset dy="2"/>
<feGaussianBlur stdDeviation="2.5"/>
<feColorMatrix type="matrix" values="0 0 0 0 0 0 0 0 0 0 0 0 0 0 0 0 0 0 0.21 0"/>
<feBlend mode="normal" in2="BackgroundImageFix" result="effect1_dropShadow"/>
<feBlend mode="normal" in="SourceGraphic" in2="effect1_dropShadow" result="shape"/>
</filter>
<filter id="filter2_d" x="43" y="48" width="18.3226" height="19.3226" filterUnits="userSpaceOnUse" color-interpolation-filters="sRGB">
<feFlood flood-opacity="0" result="BackgroundImageFix"/>
<feColorMatrix in="SourceAlpha" type="matrix" values="0 0 0 0 0 0 0 0 0 0 0 0 0 0 0 0 0 0 127 0"/>
<feOffset dy="2"/>
<feGaussianBlur stdDeviation="0.5"/>
<feColorMatrix type="matrix" values="0 0 0 0 0.31719 0 0 0 0 0.0325521 0 0 0 0 0.520833 0 0 0 0.24 0"/>
<feBlend mode="normal" in2="BackgroundImageFix" result="effect1_dropShadow"/>
<feBlend mode="normal" in="SourceGraphic" in2="effect1_dropShadow" result="shape"/>
</filter>
<filter id="filter3_d" x="43" y="77.6772" width="18.3226" height="19.3226" filterUnits="userSpaceOnUse" color-interpolation-filters="sRGB">
<feFlood flood-opacity="0" result="BackgroundImageFix"/>
<feColorMatrix in="SourceAlpha" type="matrix" values="0 0 0 0 0 0 0 0 0 0 0 0 0 0 0 0 0 0 127 0"/>
<feOffset dy="2"/>
<feGaussianBlur stdDeviation="0.5"/>
<feColorMatrix type="matrix" values="0 0 0 0 0.31719 0 0 0 0 0.0325521 0 0 0 0 0.520833 0 0 0 0.24 0"/>
<feBlend mode="normal" in2="BackgroundImageFix" result="effect1_dropShadow"/>
<feBlend mode="normal" in="SourceGraphic" in2="effect1_dropShadow" result="shape"/>
</filter>
<filter id="filter4_d" x="60.7739" y="64.3228" width="13.9355" height="21.3548" filterUnits="userSpaceOnUse" color-interpolation-filters="sRGB">
<feFlood flood-opacity="0" result="BackgroundImageFix"/>
<feColorMatrix in="SourceAlpha" type="matrix" values="0 0 0 0 0 0 0 0 0 0 0 0 0 0 0 0 0 0 127 0"/>
<feOffset dy="4"/>
<feGaussianBlur stdDeviation="2"/>
<feColorMatrix type="matrix" values="0 0 0 0 0 0 0 0 0 0 0 0 0 0 0 0 0 0 0.25 0"/>
<feBlend mode="normal" in2="BackgroundImageFix" result="effect1_dropShadow"/>
<feBlend mode="normal" in="SourceGraphic" in2="effect1_dropShadow" result="shape"/>
</filter>
<filter id="filter5_d" x="43" y="48" width="48" height="49" filterUnits="userSpaceOnUse" color-interpolation-filters="sRGB">
<feFlood flood-opacity="0" result="BackgroundImageFix"/>
<feColorMatrix in="SourceAlpha" type="matrix" values="0 0 0 0 0 0 0 0 0 0 0 0 0 0 0 0 0 0 127 0"/>
<feOffset dy="2"/>
<feGaussianBlur stdDeviation="0.5"/>
<feColorMatrix type="matrix" values="0 0 0 0 0.31719 0 0 0 0 0.0325521 0 0 0 0 0.520833 0 0 0 0.24 0"/>
<feBlend mode="normal" in2="BackgroundImageFix" result="effect1_dropShadow"/>
<feBlend mode="normal" in="SourceGraphic" in2="effect1_dropShadow" result="shape"/>
</filter>
<filter id="filter6_d" x="72.6777" y="48" width="18.3226" height="19.3226" filterUnits="userSpaceOnUse" color-interpolation-filters="sRGB">
<feFlood flood-opacity="0" result="BackgroundImageFix"/>
<feColorMatrix in="SourceAlpha" type="matrix" values="0 0 0 0 0 0 0 0 0 0 0 0 0 0 0 0 0 0 127 0"/>
<feOffset dy="2"/>
<feGaussianBlur stdDeviation="0.5"/>
<feColorMatrix type="matrix" values="0 0 0 0 0.31719 0 0 0 0 0.0325521 0 0 0 0 0.520833 0 0 0 0.24 0"/>
<feBlend mode="normal" in2="BackgroundImageFix" result="effect1_dropShadow"/>
<feBlend mode="normal" in="SourceGraphic" in2="effect1_dropShadow" result="shape"/>
</filter>
<filter id="filter7_d" x="72.6777" y="77.6772" width="18.3226" height="19.3226" filterUnits="userSpaceOnUse" color-interpolation-filters="sRGB">
<feFlood flood-opacity="0" result="BackgroundImageFix"/>
<feColorMatrix in="SourceAlpha" type="matrix" values="0 0 0 0 0 0 0 0 0 0 0 0 0 0 0 0 0 0 127 0"/>
<feOffset dy="2"/>
<feGaussianBlur stdDeviation="0.5"/>
<feColorMatrix type="matrix" values="0 0 0 0 0.31719 0 0 0 0 0.0325521 0 0 0 0 0.520833 0 0 0 0.24 0"/>
<feBlend mode="normal" in2="BackgroundImageFix" result="effect1_dropShadow"/>
<feBlend mode="normal" in="SourceGraphic" in2="effect1_dropShadow" result="shape"/>
</filter>
<linearGradient id="paint0_linear" x1="88" y1="130" x2="85.5" y2="-5.21913e-06" gradientUnits="userSpaceOnUse">
<stop stop-color="#191540"/>
<stop offset="1" stop-color="#2A2759"/>
<stop offset="1" stop-color="#19173D"/>
</linearGradient>
<linearGradient id="paint1_linear" x1="66.7273" y1="36.0162" x2="75.5212" y2="138.343" gradientUnits="userSpaceOnUse">
<stop stop-color="#C1A1F3"/>
<stop offset="1" stop-color="#C1A1F3" stop-opacity="0"/>
<stop offset="1" stop-color="#CFB4FA"/>
</linearGradient>
<linearGradient id="paint2_linear" x1="52.1613" y1="45.3387" x2="53.964" y2="66.4753" gradientUnits="userSpaceOnUse">
<stop stop-color="#7645C7"/>
<stop offset="1" stop-color="#2B174D"/>
</linearGradient>
<linearGradient id="paint3_linear" x1="52.1613" y1="75.016" x2="53.964" y2="96.1525" gradientUnits="userSpaceOnUse">
<stop stop-color="#7645C7"/>
<stop offset="1" stop-color="#2B174D"/>
</linearGradient>
<linearGradient id="paint4_linear" x1="67" y1="40.5" x2="72.0804" y2="100.067" gradientUnits="userSpaceOnUse">
<stop stop-color="#7645C7"/>
<stop offset="1" stop-color="#2B174D"/>
</linearGradient>
<linearGradient id="paint5_linear" x1="81.839" y1="45.3387" x2="83.6417" y2="66.4753" gradientUnits="userSpaceOnUse">
<stop stop-color="#7645C7"/>
<stop offset="1" stop-color="#2B174D"/>
</linearGradient>
<linearGradient id="paint6_linear" x1="81.839" y1="75.016" x2="83.6417" y2="96.1525" gradientUnits="userSpaceOnUse">
<stop stop-color="#7645C7"/>
<stop offset="1" stop-color="#2B174D"/>
</linearGradient>
</defs>
</svg>
