<svg width="160" height="291" viewBox="0 0 160 291" fill="none" xmlns="http://www.w3.org/2000/svg">
<g clip-path="url(#clip0)">
<path d="M68.0321 179.241C74.1292 179.241 85.8705 179.241 91.9609 179.241C91.9084 179.431 84.1116 190.518 91.9609 201.461C85.8639 201.461 74.1226 201.461 68.0321 201.461C75.9209 190.466 68.0912 179.457 68.0321 179.241Z" fill="url(#paint0_linear)"/>
<path d="M91.9609 179.241C91.9478 179.287 91.4096 180.079 90.7599 181.408C90.6418 181.414 83.2059 181.879 79.6224 188.208C76.7807 193.228 78.4083 199.157 79.2352 201.461C75.0349 201.461 70.9002 201.461 68.0321 201.461C75.9209 190.466 68.0912 179.457 68.0321 179.241C74.1358 179.241 85.8705 179.241 91.9609 179.241Z" fill="url(#paint1_linear)"/>
<path d="M33.1627 131.033C26.6653 123.742 18.7831 119.023 11.4785 115.286C9.20111 114.121 7.79007 111.857 7.79007 109.37V72.1561C7.79007 69.7607 11.2947 70.8798 13.3883 70.6181C16.0332 70.6181 14.4975 74.5776 14.9306 81.1093C14.9306 85.9132 18.8488 89.8204 23.666 89.8204H33.0511V82.0518H23.666C21.9859 82.0518 23.0491 79.7807 22.7209 72.1561C22.7209 67.025 18.5337 62.856 13.3949 62.856H9.33894C4.19353 62.856 0.012886 67.0315 0.012886 72.1561V109.37C0.012886 126.209 18.6322 124.521 34.1669 146.452C35.3941 148.18 40.0933 152.513 40.0933 152.513C36.1686 146.184 33.714 138.873 33.1627 131.033Z" fill="url(#paint2_linear)"/>
<path d="M126.837 131.033C133.334 123.742 141.217 119.023 148.521 115.286C150.799 114.121 152.21 111.857 152.21 109.37V72.1561C152.21 69.7607 148.705 70.8798 146.611 70.6181C143.967 70.6181 145.502 74.5776 145.069 81.1093C145.069 85.9132 141.151 89.8204 136.334 89.8204H126.949V82.0518H136.334C138.014 82.0518 136.951 79.7807 137.279 72.1561C137.279 67.025 141.466 62.856 146.605 62.856H150.661C155.813 62.856 160 67.025 160 72.1561V109.37C160 126.209 141.381 124.521 125.846 146.452C124.619 148.18 119.92 152.513 119.92 152.513C123.831 146.184 126.286 138.873 126.837 131.033Z" fill="url(#paint3_linear)"/>
<path d="M54.788 52.9275C60.36 52.9275 99.6397 52.9275 105.218 52.9275L118.029 64.9044C109.563 64.9044 50.4301 64.9044 41.9638 64.9044L54.788 52.9275Z" fill="url(#paint4_linear)"/>
<path d="M35.8011 64.9045C45.6653 64.9045 114.334 64.9045 124.198 64.9045C128.412 64.9045 131.825 68.3078 131.825 72.5096C120.221 72.5096 39.7783 72.5096 28.1749 72.5096C28.1749 68.3078 31.5876 64.9045 35.8011 64.9045Z" fill="url(#paint5_linear)"/>
<path d="M131.825 72.5095V74.4533C131.825 76.8683 129.862 78.8252 127.447 78.8252C116.841 78.8252 43.1648 78.8252 32.5589 78.8252C30.1372 78.8252 28.1749 76.8683 28.1749 74.4533V72.5095C39.7783 72.5095 120.228 72.5095 131.825 72.5095Z" fill="url(#paint6_linear)"/>
<path d="M126.837 131.033C127.933 129.802 129.069 128.644 130.237 127.558V127.682C130.237 133.409 129.298 138.991 127.467 144.266C126.922 144.967 126.384 145.7 125.846 146.452C124.619 148.18 119.92 152.513 119.92 152.513C123.831 146.184 126.286 138.874 126.837 131.033Z" fill="url(#paint7_linear)"/>
<path d="M126.955 82.0518H130.237V89.8204H126.955V82.0518Z" fill="url(#paint8_linear)"/>
<path d="M126.955 78.8186V127.682C126.955 149.116 112.687 167.232 93.103 173.089C86.4284 173.089 73.5517 173.089 66.8903 173.089C47.3062 167.225 33.0382 149.116 33.0382 127.682V78.8186C43.539 78.8186 116.461 78.8186 126.955 78.8186Z" fill="url(#paint9_linear)"/>
<path d="M100.624 170.118C87.0847 158.717 67.6119 140.24 67.6119 118.937C67.6119 103.858 69.154 89.6633 76.544 78.8186C93.68 78.8186 122.558 78.8186 126.955 78.8186V127.682C126.955 146.262 116.231 162.35 100.624 170.118Z" fill="url(#paint10_linear)"/>
<path d="M66.8901 173.089V179.235C73.5647 179.235 86.4414 179.235 93.1028 179.235V173.089C86.4283 173.089 73.5516 173.089 66.8901 173.089Z" fill="url(#paint11_linear)"/>
<path d="M93.103 175.053H66.8903V173.089C73.5649 173.089 86.4416 173.089 93.103 173.089V175.053Z" fill="url(#paint12_linear)"/>
<path d="M66.897 201.461C77.3716 201.461 84.2299 201.461 93.0966 201.461C95.5183 201.461 97.4741 203.418 97.4741 205.826V206.527C87.0258 206.527 73.8472 206.527 62.5129 206.527V205.826C62.5194 203.418 64.4818 201.461 66.897 201.461Z" fill="url(#paint13_linear)"/>
<path d="M102.456 206.527V253.341C97.5005 253.341 62.4999 253.341 57.5448 253.341V206.527C62.4999 206.527 97.5005 206.527 102.456 206.527Z" fill="url(#paint14_linear)"/>
<path d="M102.456 250.115C101.163 250.344 99.8435 250.462 98.4981 250.462C83.3637 250.462 71.0974 235.441 71.0974 216.92C71.0974 213.294 71.57 209.799 72.4363 206.527C84.3679 206.527 99.3447 206.527 102.456 206.527V250.115Z" fill="url(#paint15_linear)"/>
<path d="M52.6418 253.341C61.6594 253.341 94.1333 253.341 107.364 253.341C109.156 253.341 110.606 254.788 110.606 256.574V257.445C103.814 257.445 56.199 257.445 49.4062 257.445V256.574C49.3997 254.788 50.8501 253.341 52.6418 253.341Z" fill="url(#paint16_linear)"/>
<path d="M116.789 257.445V284.907C108.598 284.907 51.4016 284.907 43.211 284.907V257.445C51.4016 257.445 108.598 257.445 116.789 257.445Z" fill="url(#paint17_linear)"/>
<path d="M116.789 257.445V284.213C115.463 284.292 114.124 284.331 112.772 284.331C89.9004 284.331 70.8282 272.766 66.5688 257.438C86.2579 257.445 111.552 257.445 116.789 257.445Z" fill="url(#paint18_linear)"/>
<path d="M40.5921 284.907C49.38 284.907 110.626 284.907 119.407 284.907C121.252 286.746 122.289 287.78 124.133 289.619V291C113.284 291 46.525 291 35.8601 291V289.619C37.7109 287.78 38.7413 286.746 40.5921 284.907Z" fill="url(#paint19_linear)"/>
<path d="M74.7922 44.1902C74.93 44.1902 85.4374 44.1902 85.2011 44.1902C88.4564 44.1902 91.0947 46.8212 91.0947 50.0674V52.9275C85.4374 52.9275 74.5559 52.9275 68.8986 52.9275V50.0674C68.8986 46.8277 71.5369 44.1902 74.7922 44.1902Z" fill="url(#paint20_linear)"/>
<path d="M78.2312 47.7375C78.2312 46.3238 82.169 45.1261 87.6229 44.7073C89.6705 45.6301 91.0947 47.6851 91.0947 50.0674V50.9183C83.9213 50.8266 78.2312 49.4392 78.2312 47.7375Z" fill="url(#paint21_linear)"/>
<path d="M85.2603 39.2031V44.1902C81.2634 44.1902 78.7366 44.1902 74.7463 44.1902V39.2031C78.7366 39.2031 81.2634 39.2031 85.2603 39.2031Z" fill="url(#paint22_linear)"/>
<path d="M85.2603 41.4414C83.5736 41.8538 81.8147 42.0697 80.0033 42.0697C78.1919 42.0697 76.433 41.8538 74.7463 41.4414V39.2031C78.7432 39.2031 81.2699 39.2031 85.2603 39.2031V41.4414Z" fill="url(#paint23_linear)"/>
<path d="M79.4421 40.1015C68.3406 39.7947 59.5905 30.5715 59.8981 19.5008C60.2057 8.43022 69.4547 -0.295601 80.5562 0.0111778C91.6577 0.317957 100.408 9.54117 100.1 20.6118C99.7926 31.6824 90.5436 40.4082 79.4421 40.1015Z" fill="url(#paint24_linear)"/>
<path d="M60.4391 20.053C60.4391 22.0754 62.2308 23.7966 62.8214 25.6226C63.4384 27.5141 63.0249 29.9487 64.1734 31.526C65.3351 33.1164 67.7897 33.4698 69.3845 34.6282C70.9662 35.7736 72.0556 37.9988 73.9523 38.614C75.7834 39.2096 77.9689 38.0642 79.9969 38.0642C82.0249 38.0642 84.2103 39.2096 86.0414 38.614C87.9381 37.9988 89.0276 35.7736 90.6093 34.6282C92.2041 33.4698 94.6587 33.1164 95.8203 31.526C96.9689 29.9487 96.5554 27.5141 97.1723 25.6226C97.7695 23.7966 99.5547 22.0819 99.5547 20.0596C99.5547 18.0372 97.763 16.316 97.1723 14.4965C96.5554 12.6051 96.9689 10.1704 95.8203 8.59314C94.6587 7.00276 92.2041 6.64935 90.6093 5.49092C89.0276 4.34559 87.9381 2.12037 86.0414 1.50516C84.2103 0.909587 82.0249 2.05492 79.9969 2.05492C77.9689 2.05492 75.7834 0.909587 73.9523 1.50516C72.0556 2.12037 70.9662 4.34559 69.3845 5.49092C67.7897 6.64935 65.3351 7.00276 64.1734 8.59314C63.0249 10.1704 63.4384 12.6051 62.8214 14.4965C62.2242 16.316 60.4391 18.0307 60.4391 20.053Z" fill="url(#paint25_linear)"/>
<path d="M75.1268 37.3706C75.7437 37.3706 76.4591 37.2135 77.2138 37.0499C78.1064 36.8536 79.0318 36.6507 80.0031 36.6507C80.9679 36.6507 81.8933 36.8536 82.7924 37.0499C83.5472 37.2135 84.2691 37.3706 84.8795 37.3706C85.1617 37.3706 85.4045 37.3379 85.6145 37.2724C86.3955 37.0172 87.0978 36.2253 87.8394 35.381C88.4301 34.7134 89.0339 34.0262 89.782 33.483C90.5368 32.9333 91.39 32.5667 92.2169 32.2068C93.2408 31.7617 94.2121 31.3429 94.6846 30.6949C95.1506 30.0536 95.2556 29.0129 95.3606 27.9069C95.4459 27.0102 95.5378 26.0874 95.8332 25.1908C96.1154 24.3269 96.5748 23.5481 97.0276 22.7954C97.6052 21.8268 98.1499 20.9105 98.1499 20.0597C98.1499 19.2154 97.6052 18.2991 97.0276 17.324C96.5813 16.5713 96.1154 15.7925 95.8332 14.9286C95.5378 14.032 95.4525 13.1026 95.3606 12.2125C95.249 11.1064 95.1506 10.0658 94.6846 9.42444C94.2121 8.77651 93.2408 8.35765 92.2169 7.9126C91.39 7.55264 90.5434 7.18613 89.782 6.63637C89.0339 6.09316 88.4235 5.40596 87.8394 4.73839C87.0978 3.89411 86.3955 3.1022 85.6145 2.84695C85.4045 2.7815 85.1617 2.74878 84.8795 2.74878C84.2625 2.74878 83.5472 2.90585 82.7924 3.06947C81.8998 3.26582 80.9745 3.4687 80.0031 3.4687C79.0384 3.4687 78.113 3.26582 77.2138 3.06947C76.4591 2.90585 75.7437 2.74878 75.1268 2.74878C74.8446 2.74878 74.6018 2.7815 74.3917 2.84695C73.6107 3.1022 72.9085 3.89411 72.1669 4.73839C71.5762 5.40596 70.9724 6.09316 70.2242 6.63637C69.4695 7.18613 68.6163 7.55264 67.7893 7.9126C66.7655 8.35765 65.7942 8.77651 65.3216 9.42444C64.8557 10.0658 64.7507 11.1064 64.6456 12.2125C64.5603 13.1091 64.4684 14.032 64.1731 14.9286C63.8909 15.7925 63.4315 16.5713 62.9786 17.324C62.4011 18.2926 61.8564 19.2089 61.8564 20.0597C61.8564 20.904 62.4011 21.8202 62.9786 22.7954C63.4249 23.5481 63.8909 24.3269 64.1731 25.1908C64.4684 26.0874 64.5538 27.0168 64.6456 27.9069C64.7507 29.0129 64.8557 30.0536 65.3216 30.6949C65.7942 31.3429 66.7655 31.7617 67.7893 32.2068C68.6163 32.5667 69.4629 32.9333 70.2242 33.483C70.9724 34.0262 71.5762 34.7134 72.1669 35.381C72.9085 36.2253 73.6107 37.0172 74.3917 37.2724C74.6018 37.3379 74.8446 37.3706 75.1268 37.3706Z" fill="url(#paint26_linear)"/>
<path d="M79.9968 34.2619C72.1277 34.2619 65.7485 27.9004 65.7485 20.0532C65.7485 12.2059 72.1277 5.84448 79.9968 5.84448C87.8659 5.84448 94.2451 12.2059 94.2451 20.0532C94.2451 27.9004 87.8659 34.2619 79.9968 34.2619Z" fill="url(#paint27_linear)"/>
<path d="M70.4266 29.5994C65.1391 24.3267 65.1391 15.7778 70.4266 10.5051C75.714 5.23233 84.2867 5.23233 89.5742 10.5051C94.8616 15.7778 94.8616 24.3267 89.5742 29.5994C84.2867 34.8722 75.714 34.8722 70.4266 29.5994Z" fill="url(#paint28_linear)"/>
<path d="M79.9967 32.2919C73.2186 32.2919 67.7238 26.8124 67.7238 20.0532C67.7238 13.2939 73.2186 7.81445 79.9967 7.81445C86.7748 7.81445 92.2695 13.2939 92.2695 20.0532C92.2695 26.8124 86.7748 32.2919 79.9967 32.2919Z" fill="url(#paint29_linear)"/>
<path d="M75.0221 31.2513L89.7955 12.6772C90.2943 13.3317 90.7274 14.0386 91.0884 14.7912L77.3848 32.017C76.5644 31.8403 75.7703 31.5785 75.0221 31.2513Z" fill="url(#paint30_linear)"/>
<path d="M81.9855 32.1348L92.2501 19.2285C92.2698 19.5034 92.2764 19.7783 92.2764 20.0532C92.2764 20.4131 92.2632 20.7665 92.2304 21.12L83.8232 31.6898C83.2325 31.8861 82.6156 32.0366 81.9855 32.1348Z" fill="url(#paint31_linear)"/>
<path d="M70.6313 27.9657L85.5885 9.15601C85.9363 9.33271 86.2776 9.52906 86.6123 9.73849L71.432 28.823C71.1498 28.5482 70.8873 28.2667 70.6313 27.9657Z" fill="url(#paint32_linear)"/>
<path d="M68.0983 23.0507L80.2136 7.81445C80.9159 7.82754 81.605 7.89954 82.2744 8.02389L68.7677 25.0076C68.4921 24.3793 68.2689 23.7313 68.0983 23.0507Z" fill="url(#paint33_linear)"/>
</g>
<defs>
<linearGradient id="paint0_linear" x1="91.43" y1="190.47" x2="73.6917" y2="190.546" gradientUnits="userSpaceOnUse">
<stop stop-color="#E2D0FF"/>
<stop offset="1" stop-color="#8A4CEA"/>
</linearGradient>
<linearGradient id="paint1_linear" x1="65.3762" y1="185.848" x2="75.3671" y2="196.164" gradientUnits="userSpaceOnUse">
<stop stop-color="#9F27F8"/>
<stop offset="1" stop-color="#5F1397"/>
</linearGradient>
<linearGradient id="paint2_linear" x1="-4.43582" y1="89.5118" x2="24.7755" y2="102.033" gradientUnits="userSpaceOnUse">
<stop stop-color="#9F27F8"/>
<stop offset="1" stop-color="#5F1397"/>
</linearGradient>
<linearGradient id="paint3_linear" x1="158.917" y1="108.165" x2="122.725" y2="108.243" gradientUnits="userSpaceOnUse">
<stop stop-color="#E2D0FF"/>
<stop offset="1" stop-color="#8A4CEA"/>
</linearGradient>
<linearGradient id="paint4_linear" x1="115.973" y1="58.9801" x2="47.3506" y2="61.0722" gradientUnits="userSpaceOnUse">
<stop stop-color="#E2D0FF"/>
<stop offset="1" stop-color="#8A4CEA"/>
</linearGradient>
<linearGradient id="paint5_linear" x1="129.023" y1="68.7478" x2="35.8271" y2="74.845" gradientUnits="userSpaceOnUse">
<stop stop-color="#E2D0FF"/>
<stop offset="1" stop-color="#8A4CEA"/>
</linearGradient>
<linearGradient id="paint6_linear" x1="16.6703" y1="74.3872" x2="17.0299" y2="80.047" gradientUnits="userSpaceOnUse">
<stop stop-color="#9F27F8"/>
<stop offset="1" stop-color="#5F1397"/>
</linearGradient>
<linearGradient id="paint7_linear" x1="118.775" y1="134.977" x2="126.467" y2="138.026" gradientUnits="userSpaceOnUse">
<stop stop-color="#9F27F8"/>
<stop offset="1" stop-color="#5F1397"/>
</linearGradient>
<linearGradient id="paint8_linear" x1="126.591" y1="84.3615" x2="129.023" y2="85.3465" gradientUnits="userSpaceOnUse">
<stop stop-color="#9F27F8"/>
<stop offset="1" stop-color="#5F1397"/>
</linearGradient>
<linearGradient id="paint9_linear" x1="22.6139" y1="106.846" x2="64.9799" y2="147.316" gradientUnits="userSpaceOnUse">
<stop stop-color="#9F27F8"/>
<stop offset="1" stop-color="#5F1397"/>
</linearGradient>
<linearGradient id="paint10_linear" x1="125.638" y1="124.958" x2="81.6472" y2="125.07" gradientUnits="userSpaceOnUse">
<stop stop-color="#E2D0FF"/>
<stop offset="1" stop-color="#8A4CEA"/>
</linearGradient>
<linearGradient id="paint11_linear" x1="96.0123" y1="174.916" x2="94.7366" y2="180.134" gradientUnits="userSpaceOnUse">
<stop stop-color="#9F27F8"/>
<stop offset="1" stop-color="#5F1397"/>
</linearGradient>
<linearGradient id="paint12_linear" x1="96.1961" y1="175.053" x2="96.1179" y2="173.985" gradientUnits="userSpaceOnUse">
<stop stop-color="#9F27F8"/>
<stop offset="1" stop-color="#5F1397"/>
</linearGradient>
<linearGradient id="paint13_linear" x1="58.6324" y1="202.967" x2="59.3057" y2="207.423" gradientUnits="userSpaceOnUse">
<stop stop-color="#9F27F8"/>
<stop offset="1" stop-color="#5F1397"/>
</linearGradient>
<linearGradient id="paint14_linear" x1="52.5599" y1="220.445" x2="73.5476" y2="239.751" gradientUnits="userSpaceOnUse">
<stop stop-color="#9F27F8"/>
<stop offset="1" stop-color="#5F1397"/>
</linearGradient>
<linearGradient id="paint15_linear" x1="101.76" y1="228.73" x2="78.514" y2="228.795" gradientUnits="userSpaceOnUse">
<stop stop-color="#E2D0FF"/>
<stop offset="1" stop-color="#8A4CEA"/>
</linearGradient>
<linearGradient id="paint16_linear" x1="42.6133" y1="254.561" x2="42.8702" y2="258.236" gradientUnits="userSpaceOnUse">
<stop stop-color="#9F27F8"/>
<stop offset="1" stop-color="#5F1397"/>
</linearGradient>
<linearGradient id="paint17_linear" x1="35.0442" y1="265.61" x2="43.3967" y2="287.067" gradientUnits="userSpaceOnUse">
<stop stop-color="#9F27F8"/>
<stop offset="1" stop-color="#5F1397"/>
</linearGradient>
<linearGradient id="paint18_linear" x1="115.675" y1="271.029" x2="78.4482" y2="271.303" gradientUnits="userSpaceOnUse">
<stop stop-color="#E2D0FF"/>
<stop offset="1" stop-color="#8A4CEA"/>
</linearGradient>
<linearGradient id="paint19_linear" x1="26.0623" y1="286.718" x2="26.455" y2="292.172" gradientUnits="userSpaceOnUse">
<stop stop-color="#9F27F8"/>
<stop offset="1" stop-color="#5F1397"/>
</linearGradient>
<linearGradient id="paint20_linear" x1="66.4349" y1="46.7879" x2="69.1968" y2="53.5154" gradientUnits="userSpaceOnUse">
<stop stop-color="#9F27F8"/>
<stop offset="1" stop-color="#5F1397"/>
</linearGradient>
<linearGradient id="paint21_linear" x1="90.7471" y1="47.8461" x2="79.1325" y2="47.9615" gradientUnits="userSpaceOnUse">
<stop stop-color="#E2D0FF"/>
<stop offset="1" stop-color="#8A4CEA"/>
</linearGradient>
<linearGradient id="paint22_linear" x1="73.5793" y1="40.6858" x2="75.3627" y2="44.2908" gradientUnits="userSpaceOnUse">
<stop stop-color="#9F27F8"/>
<stop offset="1" stop-color="#5F1397"/>
</linearGradient>
<linearGradient id="paint23_linear" x1="73.5793" y1="40.0554" x2="74.2579" y2="42.4417" gradientUnits="userSpaceOnUse">
<stop stop-color="#9F27F8"/>
<stop offset="1" stop-color="#5F1397"/>
</linearGradient>
<linearGradient id="paint24_linear" x1="55.6617" y1="11.2516" x2="73.202" y2="29.0781" gradientUnits="userSpaceOnUse">
<stop stop-color="#9F27F8"/>
<stop offset="1" stop-color="#5F1397"/>
</linearGradient>
<linearGradient id="paint25_linear" x1="98.4975" y1="20.2603" x2="63.1772" y2="20.4374" gradientUnits="userSpaceOnUse">
<stop stop-color="#E2D0FF"/>
<stop offset="1" stop-color="#8A4CEA"/>
</linearGradient>
<linearGradient id="paint26_linear" x1="57.828" y1="13.0422" x2="73.4034" y2="28.6977" gradientUnits="userSpaceOnUse">
<stop stop-color="#9F27F8"/>
<stop offset="1" stop-color="#5F1397"/>
</linearGradient>
<linearGradient id="paint27_linear" x1="93.4749" y1="20.2055" x2="67.7432" y2="20.3293" gradientUnits="userSpaceOnUse">
<stop stop-color="#E2D0FF"/>
<stop offset="1" stop-color="#8A4CEA"/>
</linearGradient>
<linearGradient id="paint28_linear" x1="72.1823" y1="4.51549" x2="72.5345" y2="21.3274" gradientUnits="userSpaceOnUse">
<stop stop-color="#9F27F8"/>
<stop offset="1" stop-color="#5F1397"/>
</linearGradient>
<linearGradient id="paint29_linear" x1="91.6061" y1="20.1844" x2="69.442" y2="20.2911" gradientUnits="userSpaceOnUse">
<stop stop-color="#E2D0FF"/>
<stop offset="1" stop-color="#8A4CEA"/>
</linearGradient>
<linearGradient id="paint30_linear" x1="73.2388" y1="18.4272" x2="81.719" y2="25.1821" gradientUnits="userSpaceOnUse">
<stop stop-color="#9F27F8"/>
<stop offset="1" stop-color="#5F1397"/>
</linearGradient>
<linearGradient id="paint31_linear" x1="80.8433" y1="23.0657" x2="86.4464" y2="27.3495" gradientUnits="userSpaceOnUse">
<stop stop-color="#9F27F8"/>
<stop offset="1" stop-color="#5F1397"/>
</linearGradient>
<linearGradient id="paint32_linear" x1="68.8575" y1="15.0032" x2="77.4367" y2="21.6876" gradientUnits="userSpaceOnUse">
<stop stop-color="#9F27F8"/>
<stop offset="1" stop-color="#5F1397"/>
</linearGradient>
<linearGradient id="paint33_linear" x1="66.5248" y1="12.9261" x2="74.0509" y2="18.8762" gradientUnits="userSpaceOnUse">
<stop stop-color="#9F27F8"/>
<stop offset="1" stop-color="#5F1397"/>
</linearGradient>
<clipPath id="clip0">
<rect width="160" height="291" fill="white" transform="matrix(-1 0 0 1 160 0)"/>
</clipPath>
</defs>
</svg>
