<svg width="44" height="51" viewBox="0 0 44 51" fill="none" xmlns="http://www.w3.org/2000/svg">
<path d="M21.2218 24.2859C14.483 24.2859 9 18.8385 9 12.1435C9 5.44847 14.483 0 21.2218 0C27.9606 0 33.4435 5.44733 33.4435 12.1424C33.4435 18.8374 27.9617 24.2859 21.2218 24.2859ZM21.2218 3.64294C16.5043 3.64294 12.6656 7.4555 12.6656 12.1435C12.6656 16.8304 16.5043 20.6429 21.2218 20.6429C25.9393 20.6429 29.7779 16.8304 29.7779 12.1435C29.7779 7.4555 25.9393 3.64294 21.2218 3.64294Z" fill="#5669A9"/>
<path d="M42.1666 51H1.83338C0.821584 51 0 50.1837 0 49.1785V40.6779C0 34.3176 5.20909 29.1423 11.611 29.1423H32.389C38.7909 29.1423 44 34.3176 44 40.6779V49.1785C44 50.1837 43.1784 51 42.1666 51ZM3.66676 47.357H40.3332V40.6779C40.3332 36.3258 36.7696 32.7853 32.389 32.7853H11.611C7.2304 32.7853 3.66676 36.3269 3.66676 40.6779V47.357Z" fill="#5669A9"/>
</svg>
