<svg width="19" height="26" viewBox="0 0 19 26" fill="none" xmlns="http://www.w3.org/2000/svg">
<path d="M18.2514 13.6406C17.6403 12.8596 16.7188 12.3233 15.4862 12.0316C17.0559 11.2396 17.746 9.89606 17.5562 7.99971C17.4931 7.31231 17.3005 6.71632 16.9795 6.21117C16.6579 5.70602 16.224 5.29993 15.6755 4.99236C15.1276 4.68478 14.532 4.45054 13.89 4.28909C13.2474 4.12764 12.5102 4.01052 11.6778 3.93774V0H9.24468V3.82828C8.82349 3.82828 8.1809 3.83868 7.31693 3.85947V0H4.88275V3.93774C4.53517 3.94813 4.02431 3.95361 3.35018 3.95361L0 3.93774V6.50014H1.75396C2.55484 6.50014 3.02363 6.85423 3.16034 7.56242V12.0469C3.26605 12.0469 3.35018 12.0524 3.41328 12.0628H3.16034V18.344C3.07621 18.8749 2.77069 19.1408 2.24378 19.1408H0.489825L0 22.001H3.16034C3.3607 22.001 3.65016 22.0037 4.02929 22.0081C4.40842 22.0136 4.69291 22.0157 4.8822 22.0157V26H7.31638V22.0623C7.7586 22.0732 8.40119 22.0781 9.24413 22.0781V26H11.6778V22.0157C12.5417 21.9741 13.3083 21.8964 13.9769 21.7815C14.646 21.6666 15.2859 21.4871 15.8969 21.2419C16.5079 20.9972 17.0188 20.6924 17.4295 20.3279C17.8407 19.9634 18.18 19.4999 18.449 18.9373C18.7174 18.3746 18.8884 17.7234 18.962 16.984C19.0998 15.5364 18.8624 14.4216 18.2514 13.6406ZM7.36398 6.67144C7.43759 6.67144 7.64569 6.6687 7.9883 6.66378C8.3309 6.6583 8.61538 6.65338 8.84175 6.6479C9.06812 6.64298 9.37364 6.65557 9.75831 6.68676C10.143 6.71796 10.4668 6.75955 10.7302 6.81154C10.9937 6.86354 11.2837 6.94946 11.5992 7.06932C11.9152 7.18917 12.1681 7.33475 12.3574 7.5066C12.5473 7.67845 12.7078 7.89736 12.8395 8.1628C12.9712 8.42823 13.0371 8.73307 13.0371 9.07677C13.0371 9.36847 12.9895 9.63391 12.8948 9.87417C12.8002 10.1139 12.658 10.3142 12.4681 10.4756C12.2788 10.6371 12.0835 10.7777 11.8831 10.8976C11.6833 11.0174 11.4276 11.1138 11.1165 11.1866C10.806 11.2594 10.5348 11.3168 10.3029 11.3584C10.071 11.4 9.78155 11.429 9.43397 11.4443C9.08639 11.4597 8.82293 11.4706 8.64361 11.4755C8.46428 11.4805 8.21965 11.4805 7.90859 11.4755C7.59754 11.4706 7.416 11.4679 7.36342 11.4679L7.36398 6.67144ZM14.009 17.3124C13.9088 17.5521 13.7799 17.7606 13.6221 17.9379C13.4638 18.1147 13.2557 18.2712 12.9978 18.4064C12.7399 18.5421 12.4897 18.651 12.2473 18.7348C12.0049 18.8185 11.7126 18.8907 11.3706 18.9537C11.028 19.0161 10.728 19.0604 10.4695 19.0867C10.2116 19.1129 9.90332 19.1337 9.54522 19.1491C9.18712 19.1644 8.90762 19.172 8.70781 19.172C8.50745 19.172 8.25452 19.1693 7.949 19.1644C7.64348 19.1595 7.44866 19.1567 7.36398 19.1567V13.8748C7.4481 13.8748 7.69827 13.8699 8.11449 13.859C8.5307 13.8486 8.87053 13.8436 9.13399 13.8436C9.39744 13.8436 9.76107 13.859 10.2249 13.8907C10.6881 13.9219 11.0778 13.9684 11.3944 14.0308C11.7104 14.0932 12.0552 14.1895 12.4294 14.3198C12.8035 14.45 13.1063 14.6088 13.3382 14.7965C13.5701 14.9842 13.7649 15.2234 13.9226 15.5151C14.0809 15.8068 14.1601 16.1401 14.1601 16.515C14.159 16.8072 14.1092 17.0726 14.009 17.3124Z" fill="url(#paint0_linear)"/>
<defs>
<linearGradient id="paint0_linear" x1="9.5" y1="0" x2="9.5" y2="26" gradientUnits="userSpaceOnUse">
<stop stop-color="#6B71FF"/>
<stop offset="1" stop-color="#6B71FF"/>
</linearGradient>
</defs>
</svg>
