<svg width="24" height="25" viewBox="0 0 24 25" fill="none" xmlns="http://www.w3.org/2000/svg">
<path d="M22.8841 13.3053C22.7877 13.108 22.7877 12.8811 22.8841 12.6838L23.7783 10.8524C24.2759 9.83289 23.8818 8.61744 22.8804 8.08589L21.0822 7.13059C20.8884 7.02747 20.7554 6.84419 20.717 6.62764L20.3654 4.62002C20.1698 3.50207 19.137 2.75115 18.0148 2.91005L15.9994 3.19552C15.7817 3.22645 15.5669 3.15614 15.4091 3.00333L13.9461 1.58633C13.1315 0.797437 11.8553 0.797437 11.0407 1.58633L9.57775 3.0038C9.41998 3.15661 9.20463 3.22645 8.9874 3.19598L6.972 2.91052C5.84983 2.75162 4.81708 3.50254 4.62139 4.62049L4.2698 6.62811C4.23188 6.84466 4.09893 7.02794 3.90511 7.13106L2.10693 8.08636C1.10461 8.61791 0.710419 9.83335 1.20807 10.8529L2.10178 12.6838C2.19822 12.8811 2.19822 13.108 2.10178 13.3053L1.20807 15.1367C0.710419 16.1562 1.10461 17.3716 2.10599 17.9032L3.90417 18.8585C4.09799 18.9616 4.23141 19.1449 4.26934 19.3615L4.62092 21.3691C4.79929 22.3867 5.67052 23.1001 6.67238 23.1001C6.77116 23.1001 6.87087 23.0931 6.97153 23.079L8.98694 22.7936C9.20416 22.7626 9.41951 22.8329 9.57728 22.9858L11.0403 24.4028C11.4476 24.7974 11.97 24.9948 12.493 24.9948C13.0154 24.9948 13.5383 24.7974 13.9456 24.4028L15.4086 22.9858C15.5664 22.8329 15.7817 22.7631 15.999 22.7936L18.0144 23.079C19.137 23.2379 20.1688 22.487 20.365 21.3691L20.7166 19.3615C20.7545 19.1449 20.8874 18.9616 21.0817 18.8585L22.8799 17.9032C23.8813 17.3712 24.2755 16.1562 23.7778 15.1367L22.8841 13.3053ZM9.72803 6.76591C11.1255 6.76591 12.2626 7.90449 12.2626 9.30368C12.2626 10.7029 11.1255 11.8414 9.72803 11.8414C8.33058 11.8414 7.19343 10.7029 7.19343 9.30368C7.19343 7.90449 8.33058 6.76591 9.72803 6.76591ZM8.42 18.0518C8.28517 18.1868 8.10821 18.2548 7.93125 18.2548C7.75428 18.2548 7.57732 18.1873 7.44249 18.0518C7.17237 17.7813 7.17237 17.3435 7.44249 17.0731L16.5664 7.93777C16.8365 7.6673 17.2738 7.6673 17.5439 7.93777C17.814 8.20823 17.814 8.6465 17.5439 8.9165L8.42 18.0518ZM15.2579 19.2236C13.8604 19.2236 12.7233 18.0851 12.7233 16.6859C12.7233 15.2867 13.8604 14.1481 15.2579 14.1481C16.6553 14.1481 17.7925 15.2867 17.7925 16.6859C17.7925 18.0851 16.6553 19.2236 15.2579 19.2236Z" fill="url(#paint0_linear)"/>
<defs>
<linearGradient id="paint0_linear" x1="12.4932" y1="0.994659" x2="12.4932" y2="24.9948" gradientUnits="userSpaceOnUse">
<stop stop-color="#72E8FC"/>
<stop offset="1" stop-color="#427DF7"/>
</linearGradient>
</defs>
</svg>
