<svg width="213" height="35" viewBox="0 0 213 35" fill="none" xmlns="http://www.w3.org/2000/svg">
<path d="M8.76 13.03C11 13.03 12.84 13.74 14.28 15.16C15.72 16.58 16.44 18.41 16.44 20.65C16.44 22.85 15.72 24.68 14.28 26.14C12.86 27.58 11.02 28.3 8.76 28.3C6.5 28.3 4.66 27.58 3.24 26.14C1.84 24.7 1.14 22.79 1.14 20.41V6.37H4.62V20.32C4.62 21.62 5.02 22.7 5.82 23.56C6.62 24.42 7.62 24.85 8.82 24.85C9.94 24.85 10.91 24.46 11.73 23.68C12.55 22.88 12.96 21.9 12.96 20.74C12.96 19.52 12.52 18.5 11.64 17.68C10.76 16.86 9.66 16.45 8.34 16.45C7.72 16.45 6.96 16.64 6.06 17.02V13.48L7.5 13.12L8.76 13.03ZM18.2201 18.64C18.2201 17.08 18.7801 15.76 19.9001 14.68C21.0201 13.58 22.3701 13.03 23.9501 13.03L24.8201 13.06V16.36H24.4001C23.5801 16.36 22.9201 16.61 22.4201 17.11C21.9401 17.59 21.7001 18.24 21.7001 19.06V28H18.2201V18.64ZM32.7708 12.85C34.8908 12.85 36.6908 13.59 38.1708 15.07C39.6508 16.55 40.3908 18.37 40.3908 20.53C40.3908 22.71 39.6508 24.55 38.1708 26.05C36.6908 27.53 34.8708 28.27 32.7108 28.27C30.6308 28.27 28.8408 27.52 27.3408 26.02C25.8608 24.5 25.1208 22.67 25.1208 20.53C25.1208 18.37 25.8608 16.55 27.3408 15.07C28.8208 13.59 30.6308 12.85 32.7708 12.85ZM28.6908 20.62C28.6908 21.76 29.0908 22.76 29.8908 23.62C30.7108 24.48 31.6708 24.91 32.7708 24.91C33.8308 24.91 34.7708 24.48 35.5908 23.62C36.4108 22.76 36.8208 21.74 36.8208 20.56C36.8208 19.4 36.4208 18.39 35.6208 17.53C34.8208 16.67 33.8708 16.24 32.7708 16.24C31.6508 16.24 30.6908 16.67 29.8908 17.53C29.0908 18.39 28.6908 19.42 28.6908 20.62ZM41.287 24.91C42.647 24.91 43.737 24.52 44.557 23.74C44.957 23.34 45.257 22.89 45.457 22.39C45.657 21.89 45.757 21.3 45.757 20.62C45.757 19.4 45.357 18.41 44.557 17.65C43.777 16.87 42.687 16.48 41.287 16.48V13.09C42.767 13.09 43.977 13.32 44.917 13.78C45.857 14.24 46.747 15.04 47.587 16.18C48.407 15.1 49.297 14.32 50.257 13.84C51.217 13.34 52.417 13.09 53.857 13.09V16.48C52.397 16.48 51.287 16.85 50.527 17.59C49.767 18.33 49.387 19.36 49.387 20.68C49.387 21.94 49.777 22.96 50.557 23.74C51.357 24.52 52.457 24.91 53.857 24.91V28.18L52.927 28.09C51.807 27.97 50.887 27.75 50.167 27.43C49.467 27.11 48.957 26.82 48.637 26.56C48.337 26.3 47.987 25.87 47.587 25.27C47.147 25.93 46.697 26.43 46.237 26.77C45.777 27.11 45.107 27.43 44.227 27.73C43.367 28.03 42.387 28.18 41.287 28.18V24.91ZM62.4192 12.85C64.5392 12.85 66.3392 13.59 67.8192 15.07C69.2992 16.55 70.0392 18.37 70.0392 20.53C70.0392 22.71 69.2992 24.55 67.8192 26.05C66.3392 27.53 64.5192 28.27 62.3592 28.27C60.2792 28.27 58.4892 27.52 56.9892 26.02C55.5092 24.5 54.7692 22.67 54.7692 20.53C54.7692 18.37 55.5092 16.55 56.9892 15.07C58.4692 13.59 60.2792 12.85 62.4192 12.85ZM58.3392 20.62C58.3392 21.76 58.7392 22.76 59.5392 23.62C60.3592 24.48 61.3192 24.91 62.4192 24.91C63.4792 24.91 64.4192 24.48 65.2392 23.62C66.0592 22.76 66.4692 21.74 66.4692 20.56C66.4692 19.4 66.0692 18.39 65.2692 17.53C64.4692 16.67 63.5192 16.24 62.4192 16.24C61.2992 16.24 60.3392 16.67 59.5392 17.53C58.7392 18.39 58.3392 19.42 58.3392 20.62ZM71.7455 6.37H75.2255V28H71.7455V6.37ZM84.5677 12.85C86.6877 12.85 88.4877 13.59 89.9677 15.07C91.4477 16.55 92.1877 18.37 92.1877 20.53C92.1877 22.71 91.4477 24.55 89.9677 26.05C88.4877 27.53 86.6677 28.27 84.5077 28.27C82.4277 28.27 80.6377 27.52 79.1377 26.02C77.6577 24.5 76.9177 22.67 76.9177 20.53C76.9177 18.37 77.6577 16.55 79.1377 15.07C80.6177 13.59 82.4277 12.85 84.5677 12.85ZM80.4877 20.62C80.4877 21.76 80.8877 22.76 81.6877 23.62C82.5077 24.48 83.4677 24.91 84.5677 24.91C85.6277 24.91 86.5677 24.48 87.3877 23.62C88.2077 22.76 88.6177 21.74 88.6177 20.56C88.6177 19.4 88.2177 18.39 87.4177 17.53C86.6177 16.67 85.6677 16.24 84.5677 16.24C83.4477 16.24 82.4877 16.67 81.6877 17.53C80.8877 18.39 80.4877 19.42 80.4877 20.62ZM100.884 28.15C98.6639 28.15 96.8439 27.48 95.4239 26.14C94.0239 24.8 93.3239 23.04 93.3239 20.86C93.3239 18.6 94.0739 16.7 95.5739 15.16C97.0939 13.62 98.9739 12.85 101.214 12.85C103.414 12.85 105.224 13.6 106.644 15.1C108.064 16.58 108.774 18.49 108.774 20.83V26.77C108.774 29.15 107.964 31.07 106.344 32.53C104.744 33.99 102.654 34.72 100.074 34.72L98.6039 34.63L96.7439 34.15V30.76L98.3939 31.24L99.6539 31.36C101.434 31.36 102.794 30.96 103.734 30.16C104.694 29.36 105.174 28.2 105.174 26.68V20.8C105.174 19.52 104.774 18.45 103.974 17.59C103.174 16.73 102.184 16.3 101.004 16.3C99.8639 16.3 98.8939 16.7 98.0939 17.5C97.2939 18.3 96.8939 19.3 96.8939 20.5C96.8939 21.78 97.3139 22.83 98.1539 23.65C99.0139 24.45 100.114 24.85 101.454 24.85C101.954 24.85 102.294 24.83 102.474 24.79C102.674 24.73 102.904 24.65 103.164 24.55C103.424 24.43 103.724 24.29 104.064 24.13V27.61L102.414 28.03L100.884 28.15ZM113.313 13.27L115.053 22.9C115.233 24.14 115.803 24.76 116.763 24.76C117.643 24.76 118.233 24.13 118.533 22.87L120.303 13.27H123.843L121.803 24.01C121.443 25.87 120.363 27.15 118.563 27.85V34.42H115.053V27.85C113.273 27.31 112.173 26.01 111.753 23.95L109.743 13.27H113.313ZM133.562 6.37H137.042V28H133.562V6.37ZM139.274 13.27H142.784V28H139.274V13.27ZM141.014 6.1C141.654 6.1 142.194 6.33 142.634 6.79C143.094 7.21 143.324 7.75 143.324 8.41C143.324 9.05 143.104 9.59 142.664 10.03C142.224 10.47 141.674 10.69 141.014 10.69C140.394 10.69 139.854 10.48 139.394 10.06C138.934 9.62 138.704 9.07 138.704 8.41C138.704 7.75 138.924 7.2 139.364 6.76C139.804 6.32 140.354 6.1 141.014 6.1ZM145.017 18.82C145.017 17.18 145.567 15.8 146.667 14.68C147.787 13.54 149.177 12.97 150.837 12.97C152.397 12.97 153.757 13.55 154.917 14.71C156.197 13.55 157.597 12.97 159.117 12.97C160.697 12.97 162.047 13.54 163.167 14.68C164.287 15.8 164.847 17.18 164.847 18.82V28H161.397V18.85C161.397 18.13 161.177 17.54 160.737 17.08C160.317 16.62 159.737 16.39 158.997 16.39C158.277 16.39 157.707 16.61 157.287 17.05C156.867 17.47 156.657 18.06 156.657 18.82V28H153.207V18.82C153.207 18.12 152.997 17.53 152.577 17.05C152.137 16.61 151.577 16.39 150.897 16.39C150.177 16.39 149.597 16.61 149.157 17.05C148.717 17.49 148.497 18.09 148.497 18.85V28H145.017V18.82ZM167.106 13.27H170.616V28H167.106V13.27ZM168.846 6.1C169.486 6.1 170.026 6.33 170.466 6.79C170.926 7.21 171.156 7.75 171.156 8.41C171.156 9.05 170.936 9.59 170.496 10.03C170.056 10.47 169.506 10.69 168.846 10.69C168.226 10.69 167.686 10.48 167.226 10.06C166.766 9.62 166.536 9.07 166.536 8.41C166.536 7.75 166.756 7.2 167.196 6.76C167.636 6.32 168.186 6.1 168.846 6.1ZM178.399 28.09C176.779 28.09 175.449 27.58 174.409 26.56C173.369 25.54 172.849 24.19 172.849 22.51V9.13H176.329V13.27H179.089V16.48H176.329V22.54C176.329 23.24 176.549 23.81 176.989 24.25C177.429 24.69 178.009 24.91 178.729 24.91L179.089 24.88V28.06L178.399 28.09ZM187.312 12.85C189.432 12.85 191.232 13.59 192.712 15.07C194.192 16.55 194.932 18.37 194.932 20.53C194.932 22.71 194.192 24.55 192.712 26.05C191.232 27.53 189.412 28.27 187.252 28.27C185.172 28.27 183.382 27.52 181.882 26.02C180.402 24.5 179.662 22.67 179.662 20.53C179.662 18.37 180.402 16.55 181.882 15.07C183.362 13.59 185.172 12.85 187.312 12.85ZM183.232 20.62C183.232 21.76 183.632 22.76 184.432 23.62C185.252 24.48 186.212 24.91 187.312 24.91C188.372 24.91 189.312 24.48 190.132 23.62C190.952 22.76 191.362 21.74 191.362 20.56C191.362 19.4 190.962 18.39 190.162 17.53C189.362 16.67 188.412 16.24 187.312 16.24C186.192 16.24 185.232 16.67 184.432 17.53C183.632 18.39 183.232 19.42 183.232 20.62ZM206.448 17.02L205.188 16.57L204.198 16.45C202.858 16.45 201.748 16.86 200.868 17.68C200.008 18.48 199.578 19.5 199.578 20.74C199.578 21.88 199.978 22.85 200.778 23.65C201.578 24.45 202.558 24.85 203.718 24.85C204.918 24.85 205.918 24.42 206.718 23.56C207.518 22.7 207.918 21.62 207.918 20.32V6.37H211.428V20.41C211.428 22.75 210.728 24.65 209.328 26.11C207.928 27.57 206.088 28.3 203.808 28.3C201.508 28.3 199.638 27.59 198.198 26.17C196.778 24.75 196.068 22.91 196.068 20.65C196.068 18.43 196.788 16.61 198.228 15.19C199.688 13.75 201.538 13.03 203.778 13.03L204.948 13.12L206.448 13.48V17.02Z" fill="white"/>
<path d="M193.615 26.9577L195.915 21.0091L190.771 21.0091L187.376 22.9949L187.358 29.8471L193.615 26.9577Z" fill="#18153A"/>
<path d="M38.2893 28.2053L40.5889 22.2566L35.4452 22.2566L32.0496 24.2424L32.0315 31.0946L38.2893 28.2053Z" fill="#18153A"/>
<circle cx="32.8545" cy="20.5107" r="2.5" fill="#7C00D9"/>
<circle cx="187.379" cy="20.4619" r="2.5" fill="#7C00D9"/>
</svg>
